<?xml version="1.0" encoding="UTF-8"?>
<!DOCTYPE svg PUBLIC "-//W3C//DTD SVG 1.0//EN" "http://www.w3.org/TR/2001/REC-SVG-20010904/DTD/svg10.dtd">
<!-- Creator: CorelDRAW 2020 (64 Bit) -->
<svg xmlns="http://www.w3.org/2000/svg" xml:space="preserve" width="21.0248cm" height="9.31704cm" version="1.0" style="shape-rendering:geometricPrecision; text-rendering:geometricPrecision; image-rendering:optimizeQuality; fill-rule:evenodd; clip-rule:evenodd"
viewBox="0 0 21025 9317"
 xmlns:xlink="http://www.w3.org/1999/xlink"
 xmlns:xodm="http://www.corel.com/coreldraw/odm/2003">
 <defs>
  <style type="text/css">
   <![CDATA[
    .str3 {stroke:#A6A3A4;stroke-width:20;stroke-miterlimit:22.9256}
    .str1 {stroke:#2E186A;stroke-width:102;stroke-linecap:round;stroke-linejoin:round;stroke-miterlimit:22.9256}
    .str0 {stroke:#2E186A;stroke-width:77;stroke-linecap:round;stroke-linejoin:round;stroke-miterlimit:22.9256}
    .str2 {stroke:#6E8A72;stroke-width:77;stroke-linecap:round;stroke-linejoin:round;stroke-miterlimit:22.9256}
    .fil0 {fill:none}
    .fil3 {fill:none;fill-rule:nonzero}
    .fil8 {fill:#FEFEFE}
    .fil10 {fill:#4B4B4D}
    .fil6 {fill:#4E5A62;fill-rule:nonzero}
    .fil2 {fill:#ABC2B3;fill-rule:nonzero}
    .fil5 {fill:#8B9E93;fill-rule:nonzero}
    .fil1 {fill:#8C9C7B;fill-rule:nonzero}
    .fil9 {fill:#C8C5E2;fill-rule:nonzero}
    .fil4 {fill:#2E186A;fill-rule:nonzero}
    .fil7 {fill:#38383B;fill-rule:nonzero}
   ]]>
  </style>
 </defs>
 <g id="Camada_x0020_1">
  <metadata id="CorelCorpID_0Corel-Layer"/>
  <path id="chair" class="fil0 str0" d="M4066 7802l-312 -2488c-123,-980 575,-1774 1561,-1774l1647 0"/>
  <path id="hoodie" class="fil0 str0" d="M7995 3497l205 -288 -54 -387c-14,-27 -29,-56 -44,-85 -1117,166 -1253,634 -1002,1136 -1853,362 -2660,3206 -2178,4556 137,384 248,767 656,771"/>
  <path class="fil1" d="M8577 4531c0,-2 0,-5 0,-7 61,6 119,6 176,-43 141,-122 191,-158 191,-158 0,0 13,15 35,41 28,-51 57,-104 86,-158 -607,-470 -1071,-709 -1071,-709l-34 -25 -223 272c0,0 363,250 840,787z"/>
  <path class="fil2" d="M11512 8945c0,0 -972,-2613 -848,-3423 67,-442 -38,-943 -184,-1330l-278 18 -333 788c22,5 43,10 65,13 0,0 -13,83 -44,273 -21,127 15,141 44,229 37,59 65,126 34,228 -10,34 -35,350 -90,780 102,217 200,447 292,690 589,1572 528,1743 528,1743l815 -9z"/>
  <path id="hoodie-2" class="fil3 str0" d="M14803 9179c-70,-460 -569,-2931 -3422,-5098 -64,-387 -226,-997 -1057,-1281" data-name="hoodie"/>
  <path id="string" class="fil3 str1" d="M10896 5384c0,0 -31,835 152,1435"/>
  <path id="stripe" class="fil1" d="M11343 4071c9,54 16,105 23,149 79,509 -90,847 -201,1082 298,-211 499,-612 601,-918 -123,-98 -290,-213 -423,-312z"/>
  <path id="stripe_II" class="fil1" d="M7128 3849c-209,43 -552,147 -799,317 173,94 1027,606 1726,913 6,-3 44,-67 63,-92 -387,-307 -793,-744 -990,-1139z" data-name="stripe II"/>
  <path id="ear" class="fil3 str0" d="M7691 1813c0,0 -474,129 -282,534 133,281 387,181 538,96"/>
  <path id="face" class="fil3 str0" d="M7818 1890l149 -50c98,59 423,463 528,663 0,0 477,-309 1221,-507 0,0 405,-93 581,-85 -51,-409 -156,-932 -340,-1399 -274,-695 -1121,-425 -1244,-384 -1322,450 -896,1759 -896,1759l1 3z"/>
  <path id="beard" class="fil3 str0" d="M9305 3605c-159,0 -310,-26 -429,-74 -386,-153 -468,-251 -607,-483 -139,-232 -573,-1117 -573,-1117l271 -91c98,59 423,463 528,663 0,0 477,-309 1221,-507 0,0 409,-94 584,-85 0,0 84,416 34,824"/>
  <polyline id="nose" class="fil3 str1" points="9690,1694 9929,2332 9683,2330 "/>
  <ellipse id="eye_II" class="fil4" transform="matrix(0.970127 -0.242599 0.242599 0.970127 9947.18 1642.83)" rx="69" ry="107" data-name="eye II"/>
  <ellipse id="eye" class="fil4" transform="matrix(0.970127 -0.242599 0.242599 0.970127 9296.99 1793.37)" rx="69" ry="107"/>
  <path id="brow_II" class="fil3 str1" d="M8873 1387c47,-106 148,-178 263,-188" data-name="brow II"/>
  <path id="brow" class="fil3 str1" d="M9751 1034c0,0 174,-95 259,46"/>
  <path id="laptop" class="fil1" d="M17315 5644l-4971 0c-65,0 -122,45 -137,108l-691 2926 -1802 0c0,0 -100,516 482,516l6347 0c65,0 122,-45 137,-108l772 -3268c2,-11 4,-21 4,-32 0,-78 -63,-141 -141,-141 0,0 0,0 0,0l0 0z"/>
  <path class="fil1" d="M15304 1084l39 0c35,0 64,29 64,64l0 101c0,35 -29,64 -64,64l-39 0c-35,0 -64,-29 -64,-64l0 -101c0,-35 29,-64 64,-64z"/>
  <path class="fil4" d="M14092 1084l1020 0c35,0 64,29 64,64l0 101c0,35 -29,64 -64,64l-1020 0c-35,0 -64,-29 -64,-64l0 -101c0,-35 29,-64 64,-64z"/>
  <path class="fil4" d="M14092 2147l1124 0c35,0 64,29 64,64l0 101c0,35 -29,64 -64,64l-1124 0c-35,0 -64,-29 -64,-64l0 -101c0,-35 29,-64 64,-64z"/>
  <path class="fil1" d="M14409 1793l1814 0c35,0 64,29 64,64l0 101c0,35 -29,64 -64,64l-1814 0c-35,0 -64,-29 -64,-64l0 -101c0,-35 29,-64 64,-64z"/>
  <path class="fil1" d="M16459 1793l921 0c35,0 64,29 64,64l0 101c0,35 -29,64 -64,64l-921 0c-35,0 -64,-29 -64,-64l0 -101c0,-35 29,-64 64,-64z"/>
  <path class="fil4" d="M17696 1439l39 0c35,0 64,29 64,64l0 101c0,35 -29,64 -64,64l-39 0c-35,0 -64,-29 -64,-64l0 -101c0,-35 29,-64 64,-64z"/>
  <path class="fil4" d="M14092 1439l1880 0c35,0 64,29 64,64l0 101c0,35 -29,64 -64,64l-1880 0c-35,0 -64,-29 -64,-64l0 -101c0,-35 29,-64 64,-64z"/>
  <path class="fil5" d="M15545 1084l1020 0c35,0 64,29 64,64l0 101c0,35 -29,64 -64,64l-1020 0c-35,0 -64,-29 -64,-64l0 -101c0,-35 29,-64 64,-64z"/>
  <path class="fil1" d="M16190 1438l1289 0c35,0 64,29 64,64l0 102c0,35 -29,64 -64,64l-1289 0c-35,0 -64,-29 -64,-64l0 -102c0,-35 29,-64 64,-64z"/>
  <path class="fil4" d="M14092 3378l1020 0c35,0 64,29 64,64l0 101c0,35 -29,64 -64,64l-1020 0c-35,0 -64,-29 -64,-64l0 -101c0,-35 29,-64 64,-64z"/>
  <path class="fil4" d="M14092 4440l1124 0c35,0 64,29 64,64l0 101c0,35 -29,64 -64,64l-1124 0c-35,0 -64,-29 -64,-64l0 -101c0,-35 29,-64 64,-64z"/>
  <path class="fil1" d="M14409 4086l1814 0c35,0 64,29 64,64l0 101c0,35 -29,64 -64,64l-1814 0c-35,0 -64,-29 -64,-64l0 -101c0,-35 29,-64 64,-64z"/>
  <path class="fil1" d="M16459 4086l921 0c35,0 64,29 64,64l0 101c0,35 -29,64 -64,64l-921 0c-35,0 -64,-29 -64,-64l0 -101c0,-35 29,-64 64,-64z"/>
  <path class="fil4" d="M17696 3733l39 0c35,0 64,29 64,64l0 101c0,35 -29,64 -64,64l-39 0c-35,0 -64,-29 -64,-64l0 -101c0,-35 29,-64 64,-64z"/>
  <path class="fil4" d="M17988 3378l39 0c35,0 64,29 64,64l0 101c0,35 -29,64 -64,64l-39 0c-35,0 -64,-29 -64,-64l0 -101c0,-35 29,-64 64,-64z"/>
  <path class="fil4" d="M14092 3732l1880 0c35,0 64,29 64,64l0 101c0,35 -29,64 -64,64l-1880 0c-35,0 -64,-29 -64,-64l0 -101c0,-35 29,-64 64,-64z"/>
  <path class="fil1" d="M15304 3378l1261 0c35,0 64,29 64,64l0 101c0,35 -29,64 -64,64l-1261 0c-35,0 -64,-29 -64,-64l0 -101c0,-35 29,-64 64,-64z"/>
  <path class="fil1" d="M16782 3378l1020 0c35,0 64,29 64,64l0 101c0,35 -29,64 -64,64l-1020 0c-35,0 -64,-29 -64,-64l0 -101c0,-35 29,-64 64,-64z"/>
  <path class="fil1" d="M15304 3035l39 0c35,0 64,29 64,64l0 101c0,35 -29,64 -64,64l-39 0c-35,0 -64,-29 -64,-64l0 -101c0,-35 29,-64 64,-64z"/>
  <path class="fil4" d="M14092 3035l1020 0c35,0 64,29 64,64l0 101c0,35 -29,64 -64,64l-1020 0c-35,0 -64,-29 -64,-64l0 -101c0,-35 29,-64 64,-64z"/>
  <path class="fil4" d="M15545 3035l1020 0c35,0 64,29 64,64l0 101c0,35 -29,64 -64,64l-1020 0c-35,0 -64,-29 -64,-64l0 -101c0,-35 29,-64 64,-64z"/>
  <path class="fil1" d="M16190 3731l1289 0c35,0 64,29 64,64l0 102c0,35 -29,64 -64,64l-1289 0c-35,0 -64,-29 -64,-64l0 -102c0,-35 29,-64 64,-64z"/>
  <path id="handle-2" class="fil3 str0" d="M3139 8497c-8,1 -16,1 -24,1 -184,0 -333,-149 -333,-333 0,-175 135,-320 309,-332 8,-1 17,-1 25,-1 12,0 24,1 36,2" data-name="handle"/>
  <path id="ug" class="fil6" d="M3095 7713l0 1097c0,212 172,384 384,384l647 0c212,0 384,-172 384,-384l0 -1097 -1414 0z"/>
  <path id="thumb" class="fil3 str0" d="M9314 3730c5,-165 3,-426 -56,-539 -93,-180 -6,-373 184,-176 109,112 162,261 188,368"/>
  <circle class="fil3 str0" cx="10924" cy="3132" r="333"/>
  <path id="sleeve" class="fil3 str0" d="M8765 9232c974,-73 1168,-3378 1202,-3491 68,-223 -145,-275 -117,-452 28,-177 6,-256 6,-256 -457,-74 -902,-650 -902,-650 0,0 -46,34 -177,146 -131,112 -277,-60 -427,111 -99,114 -1174,1920 -1174,1920"/>
  <path id="line-3" class="fil3 str0" d="M6543 6258c0,0 577,-498 911,-184" data-name="line"/>
  <path id="hand-2" class="fil3 str0" d="M8755 4785l966 562 484 -1143c467,1 465,-253 367,-261 -98,-9 -567,57 -567,57 0,0 15,-34 396,-107 381,-72 310,-285 228,-290 -82,-6 -688,146 -688,146l520 -186c185,-59 192,-238 95,-264 -64,-17 -405,86 -675,181 0,0 324,-166 478,-267 154,-101 46,-232 -44,-223 -90,8 -714,426 -833,529 -119,103 -728,1266 -728,1266z" data-name="hand"/>
  <path id="welt" class="fil1" d="M9889 5284c32,-190 44,-273 44,-273 -487,-75 -989,-689 -989,-689 0,0 -50,37 -191,158 -57,49 -115,49 -176,43 -43,533 914,1008 1367,1030 -29,-128 -79,-125 -55,-270z"/>
  <path id="handle-3" class="fil3 str0" d="M19828 7825c18,-4 36,-7 53,-8 8,-1 16,-1 24,-1 184,0 333,149 333,333 0,184 -149,333 -333,333 -33,0 -66,-5 -98,-15" data-name="handle"/>
  <path id="mug-3" class="fil6" d="M19685 8392l-256 153c-4,2 -8,3 -12,3 0,0 0,0 0,0 -14,0 -26,-11 -26,-26 0,0 0,0 0,0 0,-9 5,-18 13,-22l220 -132 -220 -132c-8,-5 -13,-13 -13,-22 0,0 0,0 0,0 0,0 0,0 0,-1 0,-7 3,-13 8,-18 5,-5 11,-8 18,-8 0,0 0,0 0,0 0,0 0,0 0,0 4,0 9,1 12,3l256 153c9,4 15,13 15,23 0,10 -6,19 -15,23l0 1z" data-name="mug"/>
  <path id="mug-3_0" class="fil6" d="M18445 7698l0 1097c0,212 172,384 384,384l647 0c212,0 384,-172 384,-384l0 -1097 -1414 0z" data-name="mug"/>
  <line id="line-4" class="fil3 str2" x1="42" y1="9226" x2="20965" y2= "9226"  data-name="line"/>
  <path class="fil7" d="M10919 3779l-71 -1095 -1411 91 48 741c125,-107 742,-519 830,-527 89,-8 197,123 44,223 -154,100 -478,267 -478,267 270,-94 611,-197 675,-181 97,26 90,205 -95,264l-520 186c0,0 606,-152 688,-146 82,6 153,218 -228,290 -381,72 -396,107 -396,107 0,0 469,-66 567,-57 98,9 100,262 -367,261l-3 6 360 -23c202,-13 359,-180 359,-383 0,-8 0,-17 -1,-25l0 0z"/>
  <g id="_2319472856064">
   <g>
    <rect class="fil8" transform="matrix(1.09016 0.0142295 -0.0142295 1.09016 15194.3 7255.3)" width="273" height="1009"/>
    <rect class="fil8" transform="matrix(1.09016 0.0142295 -0.0142295 1.09016 15199.8 6828.94)" width="273" height="257"/>
   </g>
   <rect class="fil0 str3" transform="matrix(1.00749 0.0131513 -0.0131505 1.00749 14090.7 6686.95)" width="1581" height="1738"/>
  </g>
  <g id="_2319472855968">
   <path id="ug_1" class="fil9" d="M4219 8271l-256 153c-4,2 -8,3 -12,3 0,0 0,0 0,0 0,0 0,0 -1,0 -7,0 -13,-3 -18,-8 -5,-5 -8,-11 -8,-18 0,0 0,0 0,0 0,0 0,0 0,0 0,-9 5,-18 13,-22l220 -132 -220 -132c-8,-5 -13,-13 -13,-22 0,0 0,0 0,0 0,-14 11,-26 26,-26 0,0 0,0 0,0 4,0 9,1 12,3l256 153c9,4 15,13 15,23 0,10 -6,19 -15,23l0 1z"/>
   <path id="ug_2" class="fil9" d="M3667 8666c8,5 13,13 13,22 0,0 0,0 0,0 0,14 -11,26 -26,26 0,0 0,0 0,0 -4,0 -9,-1 -12,-3l-256 -153c-9,-4 -15,-13 -15,-23 0,-10 6,-19 15,-23l256 -153c4,-2 8,-3 12,-3 0,0 0,0 0,0 14,0 26,11 26,26 0,0 0,0 0,0 0,9 -5,18 -13,22l-220 132 220 131z"/>
  </g>
  <g id="_2319472857552">
   <path id="ug_3" class="fil9" d="M19569 8322l-256 153c-4,2 -8,3 -12,3 0,0 0,0 0,0 0,0 0,0 -1,0 -7,0 -13,-3 -18,-8 -5,-5 -8,-11 -8,-18 0,0 0,0 0,0 0,0 0,0 0,0 0,-9 5,-18 13,-22l220 -132 -220 -132c-8,-5 -13,-13 -13,-22 0,0 0,0 0,0 0,-14 11,-26 26,-26 0,0 0,0 0,0 4,0 9,1 12,3l256 153c9,4 15,13 15,23 0,10 -6,19 -15,23l0 1z"/>
   <path id="ug_4" class="fil9" d="M19017 8717c8,5 13,13 13,22 0,0 0,0 0,0 0,14 -11,26 -26,26 0,0 0,0 0,0 -4,0 -9,-1 -12,-3l-256 -153c-9,-4 -15,-13 -15,-23 0,-10 6,-19 15,-23l256 -153c4,-2 8,-3 12,-3 0,0 0,0 0,0 14,0 26,11 26,26 0,0 0,0 0,0 0,9 -5,18 -13,22l-220 132 220 131z"/>
  </g>
  <path class="fil10" d="M7646 1835c72,-16 114,27 168,42 54,15 119,1 157,-10 38,-11 47,-19 49,-82 1,-63 -6,-182 -28,-291 -23,-109 -61,-210 -63,-354 -2,-144 32,-332 92,-474 60,-142 146,-237 253,-320 107,-83 237,-152 316,-191 79,-38 107,-45 208,-48 100,-3 273,-1 411,6 139,7 244,20 314,20 70,1 103,-10 107,-22 4,-12 -22,-24 -73,-43 -51,-18 -127,-42 -219,-51 -93,-9 -202,-2 -267,4 -65,6 -85,12 -136,25 -51,14 -131,35 -185,50 -54,15 -80,23 -158,60 -77,37 -206,104 -340,170 -134,66 -275,132 -380,191 -104,60 -172,113 -246,191 -74,78 -156,179 -214,278 -58,99 -94,194 -98,363 -4,169 23,411 38,532 15,121 19,120 70,82 52,-38 152,-113 224,-129z"/>
 </g>
</svg>
