<?xml version="1.0" encoding="UTF-8"?>
<!DOCTYPE svg PUBLIC "-//W3C//DTD SVG 1.0//EN" "http://www.w3.org/TR/2001/REC-SVG-20010904/DTD/svg10.dtd">
<!-- Creator: CorelDRAW 2020 (64 Bit) -->
<svg xmlns="http://www.w3.org/2000/svg" xml:space="preserve" width="21cm" height="8.46666cm" version="1.0" style="shape-rendering:geometricPrecision; text-rendering:geometricPrecision; image-rendering:optimizeQuality; fill-rule:evenodd; clip-rule:evenodd"
viewBox="0 0 21000 8467"
 xmlns:xlink="http://www.w3.org/1999/xlink"
 xmlns:xodm="http://www.corel.com/coreldraw/odm/2003">
 <defs>
  <style type="text/css">
   <![CDATA[
    .fil2 {fill:#373435;fill-rule:nonzero}
    .fil4 {fill:#373435;fill-rule:nonzero}
    .fil0 {fill:#8C9C7B;fill-rule:nonzero}
    .fil3 {fill:#8C9C7B;fill-rule:nonzero}
    .fil1 {fill:#2E186A;fill-rule:nonzero}
   ]]>
  </style>
 </defs>
 <g id="Camada_x0020_1">
  <metadata id="CorelCorpID_0Corel-Layer"/>
  <path id="Path" class="fil0" d="M2611 2225c172,-195 435,-239 682,-128 247,111 438,357 501,672l6 32 2 11c52,260 103,374 209,489l4 4c56,59 301,277 337,311 8,8 13,18 13,30 0,22 -18,40 -40,40 -10,0 -20,-4 -28,-11l-34 -31c-80,-72 -262,-237 -308,-285l-2 -2c-118,-127 -174,-255 -229,-527 -2,-11 -4,-22 -7,-34 -115,-602 -729,-878 -1048,-516 -138,156 -151,392 -67,673 61,203 176,423 260,528l4 5c41,51 59,141 79,351l20 213 4 43c6,61 12,115 18,168 18,154 46,308 82,458 6,23 12,46 18,68 1,3 1,7 1,11 0,22 -18,40 -40,40 -18,0 -33,-12 -38,-29 -6,-23 -13,-47 -19,-70 -37,-153 -66,-311 -84,-468l-3 -25c-5,-46 -11,-93 -16,-145l-5 -55c-4,-48 -14,-157 -16,-177l-2 -23c-18,-189 -35,-276 -62,-308 -91,-111 -213,-344 -278,-560 -92,-305 -76,-568 83,-749z"/>
  <path id="Path-2" class="fil0" d="M1981 4153c227,-20 469,82 647,288l17 20c99,116 169,181 237,224 56,35 113,56 208,79l14 3c34,8 205,45 275,63l29 7c130,33 265,72 419,123 228,76 442,228 646,448 7,7 11,17 11,27 0,22 -18,40 -40,40 -11,0 -22,-5 -29,-13 -195,-210 -399,-355 -613,-426 -157,-53 -294,-92 -427,-125l-36 -9c-84,-20 -245,-55 -258,-58 -107,-26 -173,-49 -240,-91 -79,-49 -157,-123 -268,-253 -331,-389 -883,-340 -961,49 -35,168 52,344 229,514 128,122 301,235 404,278l5 2c53,21 105,81 208,228l119 171 21 30c58,81 110,152 164,218 178,220 356,384 553,492 121,66 233,93 345,89 84,-3 158,-20 264,-57l78 -28 19 -6c18,-6 33,-11 47,-15 38,-13 79,-19 119,-19 3,0 7,0 10,0 94,5 167,62 227,183 3,6 5,12 5,19 0,22 -18,40 -40,40 -15,0 -29,-9 -36,-23 -48,-95 -97,-135 -157,-139l-7 0c-40,-2 -61,2 -164,38l-65 23c-118,42 -201,62 -297,65 -126,4 -253,-26 -386,-99 -207,-113 -393,-284 -576,-511 -52,-64 -102,-131 -157,-208l-24 -35 -127 -182 -13 -18c-82,-115 -128,-169 -158,-182l-2 -1c-112,-44 -298,-165 -436,-296 -195,-187 -294,-387 -252,-587 44,-216 219,-358 447,-378z" data-name="Path"/>
  <path id="Path-3" class="fil0" d="M4742 1633c147,-283 385,-424 726,-392 143,13 258,54 346,119 10,8 16,19 16,32 0,22 -18,40 -40,40 -9,0 -17,-3 -24,-8 -75,-56 -176,-91 -306,-104 -307,-29 -515,94 -648,349 -107,207 -160,488 -174,839l-1 14c-4,105 -4,188 -2,322l2 101c2,133 0,189 -7,257l0 4c-9,97 -39,192 -89,276 -44,72 -99,138 -161,195l-8 7c-130,121 -127,258 -24,475l10 22c13,26 26,53 48,94l31 60c30,55 57,112 79,171 32,84 45,156 34,223l-2 12c-8,44 -30,155 -32,168 -26,133 -39,268 -39,404 0,80 5,161 14,241 35,324 138,686 326,1099 2,5 4,11 4,17 0,22 -18,40 -40,40 -16,0 -30,-9 -36,-23 -192,-420 -297,-791 -333,-1123 -9,-82 -14,-166 -14,-249 0,-136 13,-272 38,-405l4 -19c6,-31 28,-145 32,-171 7,-50 -2,-107 -27,-176l-5 -13c-23,-57 -50,-114 -80,-168l-37 -70c-19,-37 -32,-62 -45,-89 -54,-114 -83,-204 -85,-291 -3,-105 35,-198 119,-279l5 -5c60,-54 112,-116 155,-185 42,-72 69,-152 77,-235l2 -16c7,-63 8,-117 6,-245l-2 -130c-2,-111 -1,-189 2,-280l1 -16c14,-369 69,-665 184,-887z" data-name="Path"/>
  <path id="Path-4" class="fil0" d="M5790 6709l-649 0c0,0 0,0 0,0 -22,0 -40,-18 -40,-40 0,-1 0,-2 0,-3 31,-431 88,-792 173,-1104 28,-101 59,-197 92,-286 32,-87 70,-172 111,-255 39,-77 83,-151 131,-222 46,-66 97,-130 152,-188 7,-8 18,-12 28,-12 0,0 0,0 0,0 22,0 40,18 40,40 0,0 0,0 0,0l0 2030c0,22 -18,40 -40,40l0 0zm0 -2005l-2 2c-207,244 -341,526 -437,878 -81,297 -136,638 -167,1044l0 2 566 0 40 -1926z" data-name="Path"/>
  <path id="pot_2_" class="fil1" d="M5778 6630c0,0 0,0 0,0 22,0 40,18 40,40 0,21 -16,38 -37,40l-2 0 -1603 0c-1,0 -2,0 -3,0 -81,0 -147,66 -147,147 0,9 1,18 2,27l342 1531c1,3 1,6 1,9 0,22 -18,40 -40,40 -18,0 -33,-12 -38,-29l-1 -2 -342 -1527c-32,-139 75,-271 220,-274l4 0 1603 0z"/>
  <path id="shape_15_" class="fil1" d="M15900 8447l-10109 0c-22,0 -40,-18 -40,-40l0 -8362c0,-22 18,-40 40,-40l10109 0c22,0 40,18 40,40l0 8362c0,22 -18,40 -40,40l0 0zm-10070 -8362l0 8283 10030 0 0 -8283 -10030 0z"/>
  <path id="Rectangle" class="fil1" d="M12105 7218l-567 0c-22,0 -40,-18 -40,-40l0 -885c0,-22 18,-40 40,-40l567 0c22,0 40,18 40,40l0 885c0,22 -18,40 -40,40l0 0zm-527 -885l0 805 487 0 0 -805 -487 0z"/>
  <path id="Rectangle-2" class="fil1" d="M12995 7218l-567 0c-22,0 -40,-18 -40,-40l0 -1257c0,-22 18,-40 40,-40l567 0c22,0 40,18 40,40l0 1257c0,22 -18,40 -40,40zm-527 -1257l0 1177 487 0 0 -1177 -487 0z" data-name="Rectangle"/>
  <path id="Rectangle-3" class="fil1" d="M13884 7218l-567 0c-22,0 -40,-18 -40,-40l0 -1845c0,-22 18,-40 40,-40l567 0c22,0 40,18 40,40l0 1845c0,22 -18,40 -40,40l0 0zm-527 -1845l0 0 0 1765 487 0 0 -1765 -487 0z" data-name="Rectangle"/>
  <rect id="Rectangle-4" class="fil0" x="14206" y="4825" width="567" height="2353" data-name="Rectangle"/>
  <path id="arrow_1_" class="fil0" d="M14965 3617c-7,-6 -17,-10 -26,-10 -2,0 -4,0 -5,0l-371 60c-19,3 -34,20 -34,39 0,2 0,4 0,6 4,19 21,33 40,33 2,0 3,0 5,0l242 -38 -723 840 -295 -283c-7,-7 -16,-11 -25,-11 -1,0 -3,0 -4,0 -11,0 -21,5 -28,13l-969 1126 -281 -211c-7,-5 -15,-8 -24,-8 -10,0 -20,4 -27,11l-870 834c-8,7 -12,18 -12,28 0,10 4,20 11,27 8,8 18,12 29,12 0,0 0,0 0,0 10,0 20,-4 28,-11l846 -812 285 213c7,5 16,8 24,8 11,0 22,-5 30,-13l966 -1122 295 283c7,7 16,11 25,11 1,0 3,0 4,0 11,0 21,-5 28,-13l772 -897 -5 314c0,0 0,0 0,1 0,22 17,39 39,39 0,0 0,0 1,0l0 0c22,0 40,-18 40,-40l7 -401c-2,-11 -7,-22 -16,-29l0 0z"/>
  <path id="Path-5" class="fil1" d="M9247 6223c0,0 0,0 0,0 22,0 40,18 40,40 0,21 -16,38 -37,40l-2 0 -2437 0c0,0 0,0 0,0 -22,0 -40,-18 -40,-40 0,-21 16,-38 37,-40l2 0 2437 0z" data-name="Path"/>
  <path id="Path-6" class="fil1" d="M8605 6594c0,0 0,0 0,0 22,0 40,18 40,40 0,21 -16,38 -37,40l-2 0 -1795 0c0,0 0,0 0,0 -22,0 -40,-18 -40,-40 0,-21 16,-38 37,-40l2 0 1795 0z" data-name="Path"/>
  <path id="Path-7" class="fil1" d="M8029 7010c0,0 0,0 0,0 22,0 40,18 40,40 0,21 -16,38 -37,40l-2 0 -1271 0c0,0 0,0 0,0 -22,0 -40,-18 -40,-40 0,-21 16,-38 37,-40l2 0 1271 0z" data-name="Path"/>
  <path id="Path-8" class="fil1" d="M10579 6223c0,0 0,0 0,0 22,0 40,18 40,40 0,21 -16,38 -37,40l-2 0 -1052 0c0,0 0,0 0,0 -22,0 -40,-18 -40,-40 0,-21 16,-38 37,-40l2 0 1052 0z" data-name="Path"/>
  <polygon id="Path-9" class="fil0" points="7966,5452 8247,5717 8247,5184 " data-name="Path"/>
  <polygon id="Path-10" class="fil0" points="7562,5731 7851,5454 7562,5182 " data-name="Path"/>
  <polygon id="Path-11" class="fil0" points="8994,5090 8345,5090 8672,5398 " data-name="Path"/>
  <polygon id="Path-12" class="fil0" points="7908,5508 7580,5825 8245,5825 " data-name="Path"/>
  <polygon id="Path-13" class="fil0" points="8327,5731 8615,5454 8327,5182 " data-name="Path"/>
  <polygon id="Path-14" class="fil0" points="6757,5145 6757,5769 7086,5454 " data-name="Path"/>
  <polygon id="Path-15" class="fil0" points="7144,5508 6815,5825 7480,5825 " data-name="Path"/>
  <polygon id="Path-16" class="fil0" points="7464,5090 6815,5090 7144,5398 " data-name="Path"/>
  <polygon id="Path-17" class="fil0" points="9011,5717 9011,5184 8731,5452 " data-name="Path"/>
  <polygon id="Path-18" class="fil0" points="7202,5452 7483,5717 7483,5184 " data-name="Path"/>
  <polygon id="Path-19" class="fil0" points="8674,5508 8345,5825 9010,5825 " data-name="Path"/>
  <polygon id="Path-20" class="fil0" points="8229,5090 7580,5090 7908,5398 " data-name="Path"/>
  <polygon id="Path-21" class="fil0" points="9776,5090 9091,5090 9091,5825 9776,5825 " data-name="Path"/>
  <polygon id="Path-22" class="fil0" points="10579,5090 9855,5090 9855,5825 10579,5825 " data-name="Path"/>
  <path id="Path-23" class="fil0" d="M9009 5825c1,1 1,1 3,1l0 -1 -3 0z" data-name="Path"/>
  <path id="Rectangle-5" class="fil1" d="M14406 2846l-411 0c-22,0 -40,-18 -40,-40l0 -411c0,-22 18,-40 40,-40l411 0c22,0 40,18 40,40l0 411c0,22 -18,40 -40,40l0 0zm-371 -411l0 331 331 0 0 -331 -331 0z" data-name="Rectangle"/>
  <path id="Rectangle-6" class="fil1" d="M14487 2164l-1569 0c-22,0 -40,-18 -40,-40l0 -473c0,-22 18,-40 40,-40l1569 0c22,0 40,18 40,40l0 473c0,22 -18,40 -40,40l0 0zm-1530 -473l0 393 1490 0 0 -393 -1490 0z" data-name="Rectangle"/>
  <path id="Path-24" class="fil1" d="M13716 2767c0,0 0,0 0,0 22,0 40,18 40,40 0,21 -16,38 -37,40l-2 0 -799 0c0,0 0,0 0,0 -22,0 -40,-18 -40,-40 0,-21 16,-38 37,-40l2 0 799 0z" data-name="Path"/>
  <path id="Path-25" class="fil1" d="M13716 2572c0,0 0,0 0,0 22,0 40,18 40,40 0,21 -16,38 -37,40l-2 0 -799 0c0,0 0,0 0,0 -22,0 -40,-18 -40,-40 0,-21 16,-38 37,-40l2 0 799 0z" data-name="Path"/>
  <path id="Path-26" class="fil1" d="M13716 2378c0,0 0,0 0,0 22,0 40,18 40,40 0,21 -16,38 -37,40l-2 0 -799 0c0,0 0,0 0,0 -22,0 -40,-18 -40,-40 0,-21 16,-38 37,-40l2 0 799 0z" data-name="Path"/>
  <path id="Path-27" class="fil1" d="M13811 3876c0,0 0,0 0,0 22,0 40,18 40,40 0,21 -16,38 -37,40l-2 0 -2181 0c0,0 0,0 0,0 -22,0 -40,-18 -40,-40 0,-21 16,-38 37,-40l2 0 2181 0z" data-name="Path"/>
  <path id="Path-28" class="fil1" d="M12917 4063c0,0 0,0 0,0 22,0 40,18 40,40 0,21 -16,38 -37,40l-2 0 -1287 0c0,0 0,0 0,0 -22,0 -40,-18 -40,-40 0,-21 16,-38 37,-40l2 0 1287 0z" data-name="Path"/>
  <path id="Path-29" class="fil0" d="M9391 2785l1497 -759c119,235 181,495 181,759 0,920 -758,1678 -1678,1678 0,0 0,0 0,0 -511,0 -994,-233 -1312,-633l1312 -1045z" data-name="Path"/>
  <path id="Path-30" class="fil1" d="M12064 1465c0,0 0,0 0,0 22,0 40,18 40,40 0,21 -16,38 -37,40l-2 0 -1387 0c0,0 0,0 0,0 -22,0 -40,-18 -40,-40 0,-21 16,-38 37,-40l2 0 1387 0z" data-name="Path"/>
  <path id="Path-31" class="fil1" d="M12064 1651c0,0 0,0 0,0 22,0 40,18 40,40 0,21 -16,38 -37,40l-2 0 -739 0c0,0 0,0 0,0 -22,0 -40,-18 -40,-40 0,-21 16,-38 37,-40l2 0 739 0z" data-name="Path"/>
  <path id="Path-32" class="fil1" d="M12064 1839c0,0 0,0 0,0 22,0 40,18 40,40 0,21 -16,38 -37,40l-2 0 -491 0c0,0 0,0 0,0 -22,0 -40,-18 -40,-40 0,-21 16,-38 37,-40l2 0 491 0z" data-name="Path"/>
  <path id="Path-33" class="fil1" d="M12105 2952c0,0 0,0 0,0 22,0 40,18 40,40 0,21 -16,38 -37,40l-2 0 -1789 0c0,0 0,0 0,0 -22,0 -40,-18 -40,-40 0,-21 16,-38 37,-40l2 0 1789 0z" data-name="Path"/>
  <path id="Path-34" class="fil1" d="M12105 3099c0,0 0,0 0,0 22,0 40,18 40,40 0,21 -16,38 -37,40l-2 0 -335 0c0,0 0,0 0,0 -22,0 -40,-18 -40,-40 0,-21 16,-38 37,-40l2 0 335 0z" data-name="Path"/>
  <path id="Path-35" class="fil1" d="M8374 1310c0,0 0,0 0,0 22,0 40,18 40,40 0,21 -16,38 -37,40l-2 0 -1066 0c0,0 0,0 0,0 -22,0 -40,-18 -40,-40 0,-21 16,-38 37,-40l2 0 1066 0z" data-name="Path"/>
  <path id="Path-36" class="fil1" d="M7521 1461c0,0 0,0 0,0 22,0 40,18 40,40 0,21 -16,38 -37,40l-2 0 -213 0c0,0 0,0 0,0 -22,0 -40,-18 -40,-40 0,-21 16,-38 37,-40l2 0 213 0z" data-name="Path"/>
  <path id="Path-37" class="fil0" d="M7814 3902l0 0c0,0 0,0 0,0 -12,0 -24,-6 -31,-15 -229,-287 -355,-643 -358,-1010 0,0 0,0 0,0 0,-22 18,-40 39,-40l1614 -17 0 0c0,0 0,0 0,0 17,0 32,11 37,27 2,4 2,9 2,13 0,12 -6,23 -15,31l-1265 1003c-7,6 -16,9 -25,9 0,0 0,0 0,0l0 0zm1149 -1001l-1458 16 0 6c12,318 121,626 313,880l3 4 1142 -905z" data-name="Path"/>
  <path id="Path-38" class="fil0" d="M7533 2777c-22,0 -40,-18 -40,-40l0 -21c0,-1 0,-2 0,-2 0,-204 38,-406 111,-596 6,-15 21,-25 37,-25 0,0 0,0 0,0 5,0 10,1 14,3l1505 584c15,6 25,21 25,37 0,22 -18,40 -39,40l-1613 21 -1 0zm132 -593l-4 12c-55,158 -85,325 -87,493l0 8 1368 -18 -1276 -495z" data-name="Path"/>
  <path id="Path-39" class="fil0" d="M9452 2602c-14,0 -27,-8 -34,-20 -4,-6 -5,-13 -5,-20 0,-7 2,-14 5,-20l796 -1400c7,-12 20,-20 35,-20 7,0 14,2 20,5 142,80 272,182 384,301 112,118 206,253 278,400 3,6 4,12 4,18 0,15 -9,29 -22,36l-1442 717c-6,3 -12,4 -18,4l0 0zm811 -1385l-712 1252 1290 -641 -3 -5c-132,-249 -330,-458 -571,-603l-5 -3z" data-name="Path"/>
  <path id="Path-40" class="fil2" d="M10063 1200c-241,-138 -513,-212 -791,-213l-26 0c-658,6 -1246,411 -1486,1024l1502 589 801 -1400z" data-name="Path"/>
  <path id="Path-41" class="fil1" d="M7765 3104c0,0 0,0 0,0 22,0 40,18 40,40 0,21 -16,38 -37,40l-2 0 -1066 0c0,0 0,0 0,0 -22,0 -40,-18 -40,-40 0,-21 16,-38 37,-40l2 0 1066 0z" data-name="Path"/>
  <path id="Path-42" class="fil1" d="M7084 3255c0,0 0,0 0,0 22,0 40,18 40,40 0,21 -16,38 -37,40l-2 0 -385 0c0,0 0,0 0,0 -22,0 -40,-18 -40,-40 0,-21 16,-38 37,-40l2 0 385 0z" data-name="Path"/>
  <path id="Path-43" class="fil1" d="M14781 7687c1,0 1,0 2,0 22,0 40,18 40,40 0,21 -16,38 -37,40 -85,5 -170,15 -254,29l-112 20 -49 9c-12,2 -24,4 -36,7l-17 3c-124,24 -212,44 -264,63 -10,3 -19,8 -28,12 -2,1 -3,2 -4,2l-2 1c-8,13 -5,19 12,30l2 1c28,17 77,27 128,25 0,0 1,0 1,0 22,0 40,18 40,40 0,21 -17,39 -38,40 -65,2 -128,-11 -171,-36 -57,-33 -76,-89 -40,-145 12,-19 35,-32 72,-45l8 -3c82,-25 166,-46 251,-61l35 -7c20,-4 42,-8 65,-12l113 -20c93,-16 188,-28 282,-34l0 0z" data-name="Path"/>
  <path id="Path-44" class="fil1" d="M14549 8448c-55,0 -99,-8 -129,-25 -29,-14 -48,-43 -48,-75l0 -3c0,0 0,0 0,-1 0,-6 0,-11 1,-16l0 -2 -4 0c-36,-2 -72,-11 -104,-28 -27,-12 -48,-33 -61,-59l-1 -3c-2,-6 -2,-11 -2,-17 0,-9 2,-18 6,-27l0 -1 -3 0c-16,2 -32,3 -49,3 -1,0 -1,0 -2,0 -12,0 -24,-1 -36,-3l-3 -1c-26,-4 -48,-19 -60,-42 -12,-25 -9,-58 9,-94 19,-38 104,-97 267,-187l25 -13c113,-61 223,-113 268,-127l8 -2c37,-10 155,-31 360,-63l44 -7c56,-9 115,-18 177,-27l158 -23 75 -11c2,0 4,0 6,0 17,0 33,11 38,28l1 2 187 773c1,3 1,6 1,9 0,21 -16,38 -37,40l-2 0 -1053 0 -5 0c-11,1 -22,1 -32,1zm279 -367c0,0 0,0 0,0 4,0 9,0 13,1l1 0c18,4 31,20 31,39 0,18 -12,33 -29,38l-12 3 -21 6c-11,3 -20,6 -30,9l-8 2c-12,4 -24,8 -35,11l-14 5 -43 18 -91 37c-28,11 -45,18 -63,25l-7 3c-39,14 -70,47 -70,65 0,4 3,7 15,13 23,8 47,12 72,12 3,0 6,0 10,0 9,0 19,0 29,-1l6 0 2 0 1004 0 -166 -689 -92 13 -104 15c-47,7 -89,13 -128,19l-124 19c-178,28 -289,47 -320,56l-3 1c-52,15 -182,80 -287,138 -99,55 -218,127 -229,150 -3,6 -6,12 -7,19l0 2 0 1 2 1 3 1c7,1 15,2 22,2 1,0 1,0 2,0 44,-2 88,-9 131,-20l16 -4 1 -1c38,-27 78,-51 119,-71l5 -3c23,-12 49,-24 77,-37 48,-22 102,-44 160,-66l16 -6c8,-3 15,-6 23,-8l18 -7 16 -6c4,-1 9,-2 13,-2 22,0 40,18 40,40 0,16 -10,31 -25,37l-22 8 -14 5c-13,5 -25,9 -38,14 -57,21 -109,43 -156,64 -27,12 -52,24 -74,35 -53,26 -102,58 -147,95 -11,9 -21,19 -29,30l-2 2 2 2c11,8 23,15 36,20 18,7 37,11 56,11 0,0 1,0 1,0 13,0 25,-2 38,-6l1 0 3 -2c51,-29 105,-54 161,-75l9 -3c27,-10 56,-21 87,-32l19 -6 18 -7c64,-26 93,-34 113,-34z" data-name="Path"/>
  <path id="body_5_" class="fil3" d="M18643 5544c0,-10 1,-21 1,-31 0,-335 -188,-643 -487,-795l-499 -269 -54 246c-50,227 -252,389 -485,389 -36,0 -72,-4 -107,-12l-65 -15c-227,-50 -389,-252 -389,-485 0,-36 4,-72 12,-107l83 -375c-95,-66 -171,-156 -207,-273 -3,-8 -4,-16 -7,-23l-498 -268 -1 3863 1351 -277 -65 -907c0,-1 0,-1 0,-2 0,-22 18,-40 40,-40 21,0 38,16 40,37l68 942c0,1 0,2 0,3 0,19 -13,35 -32,39l-1401 287 0 11 -767 140c151,29 318,777 318,777l2720 0c263,0 476,-213 476,-476 0,-2 0,-5 0,-7l-44 -2375z"/>
  <path id="neck_5_" class="fil1" d="M17732 3879c4,-18 20,-31 39,-31 22,0 40,18 40,40 0,2 0,4 0,5l0 2 -170 808c-54,245 -272,420 -524,420 -36,0 -72,-4 -107,-11l-9 -2 -65 -15c-246,-54 -420,-272 -420,-524 0,-36 4,-72 11,-107l2 -9 83 -375c4,-18 20,-31 39,-31 22,0 40,18 40,40 0,2 0,4 -1,6l0 2 -83 375c-7,32 -11,65 -11,99 0,211 145,395 351,444l7 2 65 15c32,7 66,11 99,11 211,0 395,-145 444,-350l2 -7 170 -808z"/>
  <path id="face_11_" class="fil1" d="M17116 4270l0 0c-117,0 -233,-23 -342,-67 -87,-34 -167,-86 -234,-151 -63,-62 -110,-138 -136,-223 -25,-87 -38,-177 -38,-268 0,-3 0,-6 0,-9 0,-136 16,-272 45,-405 9,-44 19,-88 31,-130 1,-5 2,-9 4,-13l3 -12 3 -11 4 -12 0 0 0 -1c45,-156 100,-310 162,-460 60,-145 129,-287 208,-422l9 -15 4 -6c47,-81 116,-149 198,-195 77,-40 163,-62 250,-62 3,0 7,0 10,0 26,0 53,2 79,4 84,10 166,30 245,60 42,16 83,34 123,54l14 7c86,45 167,100 240,164 64,56 120,122 166,193 43,68 76,142 97,219 21,78 33,160 33,241 0,0 0,1 0,2 0,116 -18,231 -52,342 -11,38 -24,74 -38,108 -10,24 -17,40 -22,49l-2 4 -36 68c-5,9 -10,19 -16,29l-24 44c-46,84 -89,163 -130,235 -6,10 -10,18 -15,26l-19 33c-87,150 -148,245 -189,293l-4 5c-61,71 -116,127 -188,168 -64,37 -142,63 -271,92l-16 4c-50,10 -100,16 -151,16 -1,0 -3,0 -4,0l0 0zm-585 -1279l0 0c-7,28 -26,101 -39,159l-2 10 -4 19c-26,122 -39,248 -40,373 0,3 0,6 0,9 0,83 12,165 34,245 44,143 156,255 323,323 99,40 205,61 312,61 1,0 3,0 4,0 45,0 90,-5 134,-14 235,-51 303,-88 427,-233l10 -12c38,-45 99,-142 183,-287l14 -25 15 -26c44,-77 92,-164 142,-258l5 -10c11,-20 21,-40 31,-57l25 -46 4 -8c1,-2 2,-4 3,-6l5 -10c2,-5 4,-10 6,-15l4 -11c13,-32 25,-66 36,-101 32,-103 48,-211 48,-319 0,0 0,-1 0,-1 -3,-324 -169,-575 -494,-748 -41,-22 -84,-41 -127,-57 -72,-28 -148,-47 -225,-55 -24,-2 -47,-4 -71,-4 -173,0 -305,75 -393,223l-9 15c-141,241 -269,548 -362,865l-1 0 0 0z"/>
  <path id="hair_II_1_" class="fil4" d="M16494 2978c78,-265 203,-600 375,-889 8,-13 16,-26 25,-38 -139,-109 -366,115 -522,577 -81,238 -301,359 -301,359 168,147 321,83 420,0 1,-5 1,-9 3,-9z"/>
  <path id="nose_9_" class="fil1" d="M16849 2811c6,-15 21,-25 37,-25 22,0 40,18 40,40 0,4 -1,9 -2,13l-1 2 -164 411 109 40c16,6 26,21 26,37 0,4 -1,8 -2,12l-1 2c-6,16 -21,26 -37,26 -4,0 -8,-1 -12,-2l-2 -1 -147 -54c-16,-6 -26,-21 -26,-37 0,-4 1,-8 2,-12l1 -2 179 -449z"/>
  <ellipse id="eye_II_13_" class="fil1" transform="matrix(0.394 -0.919 0.919 0.394 16723.8 2776.7)" rx="73" ry="46"/>
  <ellipse id="eye_13_" class="fil1" transform="matrix(0.215502 -0.976503 0.976503 0.215502 17129.8 2961.22)" rx="73" ry="46"/>
  <path id="brow_II_9_" class="fil1" d="M17287 2674c4,-19 20,-32 39,-32 3,0 5,0 8,1 56,10 107,40 143,83 16,18 29,39 39,61 5,10 8,20 11,30 1,3 1,7 1,10 0,22 -18,40 -40,40 -17,0 -33,-11 -38,-28l-1 -4c-2,-5 -4,-10 -6,-15 -7,-15 -16,-29 -27,-42 -25,-30 -60,-50 -99,-56 -19,-4 -32,-20 -32,-39 0,-3 0,-5 1,-8l0 0z"/>
  <path id="brow_9_" class="fil1" d="M16765 2386c48,-3 95,13 142,41 20,12 38,25 55,40 8,7 13,18 13,29 0,22 -18,40 -40,40 -10,0 -19,-4 -27,-10l-2 -1c-2,-2 -5,-4 -9,-8 -10,-8 -21,-15 -31,-22 -28,-19 -61,-30 -95,-30 -13,1 -26,5 -37,12l-3 2c-7,5 -15,7 -23,7 -22,0 -40,-18 -40,-40 0,-13 6,-25 16,-32 24,-17 52,-27 81,-29l0 0z"/>
  <path id="cap_5_" class="fil3" d="M19031 2992l-449 -228c57,-334 21,-850 -605,-1142 -980,-456 -1338,526 -1338,526l2245 1132c23,11 48,17 73,17 61,0 117,-34 145,-89 12,-23 18,-48 18,-73 0,-61 -35,-117 -89,-144l0 0z"/>
  <path id="mouth_9_" class="fil1" d="M17110 3530c9,8 14,18 14,30 0,10 -4,19 -10,26 -5,5 -9,10 -14,14 -12,10 -24,19 -37,27 -84,50 -191,56 -313,-7 -13,-7 -22,-20 -22,-35 0,-22 18,-40 40,-40 6,0 13,2 18,4 97,50 174,45 236,9 9,-5 18,-12 26,-18l3 -3 4 -4c8,-9 18,-14 30,-14 10,0 19,4 26,10l0 0z"/>
  <path id="hair_9_" class="fil4" d="M18530 3102l-947 -478c-110,343 -248,1030 339,1212 0,0 458,152 591,1 0,0 -315,-230 -244,-420 0,0 322,477 701,224 -1,0 -448,-143 -440,-539z"/>
  <path id="line_8_" class="fil1" d="M20960 8366c0,0 0,0 0,0 22,0 40,18 40,40 0,21 -16,38 -37,40l-2 0 -20921 0c0,0 0,0 0,0 -22,0 -40,-18 -40,-40 0,-21 16,-38 37,-40l2 0 20921 0z"/>
 </g>
</svg>
