<?xml version='1.0' encoding='utf-8'?>
<svg xmlns="http://www.w3.org/2000/svg" width="3000" height="3000" viewBox="0 0 3000 3000"> <defs> <clipPath id="clip-iPhone_XR_XS_Max_11_3"> <rect width="3000" height="3000"/> </clipPath> </defs> <g id="iPhone_XR_XS_Max_11_3" data-name="iPhone XR, XS Max, 11 – 3" clip-path="url(#clip-iPhone_XR_XS_Max_11_3)"> <rect width="3000" height="3000" fill="#fff"/> <g id="Group_405" data-name="Group 405" transform="translate(-297 369)"> <path id="Path_1080" data-name="Path 1080" d="M4626.445,7813.465c466.75,99.041,933.3,47.959,1390.632-279.627,856.426-613.459-1357.352-653.029-1357.352-653.029s-1357.35-633.246-1244.236,0S4341.2,7752.941,4626.445,7813.465Z" transform="translate(-3013.969 -5842.324)" fill="rgba(34,34,35,0.43)" opacity="0.75"/> <g id="Group_234" data-name="Group 234" transform="translate(758.335 246.442)"> <g id="Group_219" data-name="Group 219" transform="translate(0 782.581)"> <path id="Path_625" data-name="Path 625" d="M1396.814,3529.561l-56.08,464.908h-18.389l56.075-464.908Z" transform="translate(-1074.532 -3007.136)" fill="#d2dcff"/> <path id="Path_626" data-name="Path 626" d="M1351.547,3529.56l-6.308,52.287-49.767,412.627h-18.394l50.016-414.671,6.059-50.243Z" transform="translate(-1277.079 -3007.14)" fill="#d2dcff"/> <path id="Path_627" data-name="Path 627" d="M1396.814,3994.474H1378.42l-7.752-64.3-9.2-76.237-30.25-250.768-8.877-73.609h18.394l9.131,75.713,20.8,172.416,9.194,76.235Z" transform="translate(-1074.532 -3007.14)" fill="#d2dcff"/> <path id="Path_628" data-name="Path 628" d="M1442.081,3994.474h-18.393l-43.522-360.853h-.005l-12.547-104.062h18.394l12.793,106.07Z" transform="translate(-871.986 -3007.14)" fill="#d2dcff"/> <g id="Group_218" data-name="Group 218" transform="translate(56.971 211.638)"> <rect id="Rectangle_217" data-name="Rectangle 217" width="18.394" height="281.224" fill="#d2dcff"/> <rect id="Rectangle_218" data-name="Rectangle 218" width="18.39" height="281.224" transform="translate(249.922)" fill="#d2dcff"/> </g> <path id="Path_629" data-name="Path 629" d="M1578.919,3524.16h-252.7A14.778,14.778,0,0,1,1341,3538.937h0a14.781,14.781,0,0,1-14.781,14.781h252.7a14.781,14.781,0,0,0,14.782-14.781h0A14.778,14.778,0,0,0,1578.919,3524.16Z" transform="translate(-1057.182 -3031.296)" fill="#d2dcff"/> <path id="Path_630" data-name="Path 630" d="M1531.412,3538.937h0a14.778,14.778,0,0,0-14.781-14.776h-218.18a14.779,14.779,0,0,0-14.782,14.776h0a14.782,14.782,0,0,0,14.782,14.781h218.18A14.781,14.781,0,0,0,1531.412,3538.937Z" transform="translate(-1247.59 -3031.296)" fill="#86a2e2"/> <rect id="Rectangle_219" data-name="Rectangle 219" width="339.562" height="211.638" rx="3.763" transform="translate(21.348)" fill="#d2dcff"/> <path id="Path_631" data-name="Path 631" d="M1310.665,3529.56l-6.307,52.288c-6.641-.752-12.717-1.435-18.143-2.048l6.056-50.24Z" transform="translate(-1236.197 -3007.138)" fill="#aec3ff"/> <path id="Path_632" data-name="Path 632" d="M1340.741,3529.56l9.131,75.707q-9.37-1.053-18.651-2.1l-8.875-73.6Z" transform="translate(-1074.53 -3007.138)" fill="#aec3ff"/> <path id="Path_633" data-name="Path 633" d="M1398.8,3635.628c-5.934-.635-12.159-1.307-18.635-2.009h0l-12.552-104.06h18.394Z" transform="translate(-871.988 -3007.138)" fill="#aec3ff"/> <path id="Path_634" data-name="Path 634" d="M1287.485,3472.789h18.394v38.843l-18.394-2.035Z" transform="translate(-1230.514 -3261.152)" fill="#aec3ff"/> <path id="Path_635" data-name="Path 635" d="M1351.527,3472.789V3539.3l-18.39-2.035v-64.474Z" transform="translate(-1026.245 -3261.152)" fill="#aec3ff"/> </g> <g id="Group_224" data-name="Group 224" transform="translate(829.127 600.155)"> <path id="Path_639" data-name="Path 639" d="M1803.847,3475.2v-7.564a4.238,4.238,0,0,0-4.238-4.239H1624a16.045,16.045,0,0,0-16.047,16.04h0v12.9h0A16.046,16.046,0,0,0,1624,3508.39h175.6a4.241,4.241,0,0,0,4.238-4.239v-7.571a4.24,4.24,0,0,0-4.238-4.237H1630.454a6.449,6.449,0,0,1-6.449-6.449h0a6.45,6.45,0,0,1,6.449-6.455h169.155A4.24,4.24,0,0,0,1803.847,3475.2Z" transform="translate(-625.691 -3120.748)" fill="#6277d7"/> <path id="Path_640" data-name="Path 640" d="M1783.144,3466.328v12.9H1617.338a6.449,6.449,0,0,1-6.449-6.449h0a6.45,6.45,0,0,1,6.449-6.455Z" transform="translate(-612.577 -3107.638)" fill="#d2dcff"/> <path id="Path_641" data-name="Path 641" d="M1781.043,3466.987v-7.57a4.235,4.235,0,0,0-4.237-4.236H1626.291a16.042,16.042,0,0,0-16.041,16.046h0v12.9h0a16.041,16.041,0,0,0,16.041,16.04h150.515a4.234,4.234,0,0,0,4.237-4.237v-7.566a4.232,4.232,0,0,0-4.237-4.236H1632.745a6.456,6.456,0,0,1-6.454-6.456h0a6.45,6.45,0,0,1,6.454-6.446h144.061A4.238,4.238,0,0,0,1781.043,3466.987Z" transform="translate(-615.435 -3157.526)" fill="#fe9ecc"/> <path id="Path_642" data-name="Path 642" d="M1762.354,3458.11v12.9h-142.72a6.455,6.455,0,0,1-6.454-6.456h0a6.45,6.45,0,0,1,6.454-6.447Z" transform="translate(-602.326 -3144.409)" fill="#ffd9e8"/> <path id="Path_643" data-name="Path 643" d="M1709.3,3477.039l-93.048,752.313h-18.476l93.049-752.313Z" transform="translate(-671.266 -3059.712)" fill="#d2dcff"/> <path id="Path_644" data-name="Path 644" d="M1753.958,4229.353h-18.476l-79.6-643.614-13.446-108.7h18.475l13.254,107.154Z" transform="translate(-471.431 -3059.712)" fill="#d2dcff"/> <path id="Path_645" data-name="Path 645" d="M1540.057,3477.039l-24.893,201.279-68.156,551.034h-18.476l67.962-549.459,25.088-202.854Z" transform="translate(-1428.532 -3059.712)" fill="#d2dcff"/> <path id="Path_646" data-name="Path 646" d="M1584.717,4229.353h-18.475L1496.2,3663.065l-23.008-186.026h18.475l22.818,184.483Z" transform="translate(-1228.696 -3059.712)" fill="#d2dcff"/> <path id="Path_647" data-name="Path 647" d="M1466.035,3477.039h18.475l-24.893,201.279-18.671,1.575Z" transform="translate(-1372.985 -3059.712)" fill="#aec3ff"/> <path id="Path_648" data-name="Path 648" d="M1491.668,3477.039l22.818,184.483-18.285,1.543-23.008-186.026Z" transform="translate(-1228.696 -3059.712)" fill="#aec3ff"/> <path id="Path_649" data-name="Path 649" d="M1674.163,3584.193l-18.283,1.545-13.446-108.7h18.475Z" transform="translate(-471.431 -3059.712)" fill="#aec3ff"/> <path id="Rectangle_230" data-name="Rectangle 230" d="M0,0H954.8a2.256,2.256,0,0,1,2.256,2.256V27.432a2.256,2.256,0,0,1-2.256,2.256H0a0,0,0,0,1,0,0V0A0,0,0,0,1,0,0Z" transform="translate(296.225 387.638)" fill="#d2dcff"/> <path id="Rectangle_231" data-name="Rectangle 231" d="M2.256,0H262.311a0,0,0,0,1,0,0V29.689a0,0,0,0,1,0,0H2.256A2.256,2.256,0,0,1,0,27.432V2.256A2.256,2.256,0,0,1,2.256,0Z" transform="translate(33.914 387.638)" fill="#86a2e2"/> <path id="Path_650" data-name="Path 650" d="M1488.18,3458.429h82.867a6.82,6.82,0,0,1,6.767,7.631l-7.008,58.557a6.819,6.819,0,0,1-6.772,6.011h-68.847a6.819,6.819,0,0,1-6.772-6.011l-7.008-58.557A6.822,6.822,0,0,1,1488.18,3458.429Z" transform="translate(-1192.161 -3142.988)" fill="#d2dcff"/> <path id="Path_651" data-name="Path 651" d="M1560.843,3491.268v-26.629l-15.93,30.271v-49.16L1532.4,3476.7l-12.516-30.953v49.16l-15.931-30.271v26.629l-23.213-37.325,10.228,61.222h82.867l10.228-61.222Z" transform="translate(-1194.946 -3199.718)" fill="#6277d7"/> <path id="Path_652" data-name="Path 652" d="M2028.262,3712.39H1509.829l57.8-311.582h518.433Z" transform="translate(-1064.77 -3400.808)" fill="#d2dcff"/> <path id="Path_653" data-name="Path 653" d="M1556.714,3432.585h58.229l76.656,213.677H1589.883Z" transform="translate(-854.981 -3258.623)" fill="#86a2e2"/> <rect id="Rectangle_232" data-name="Rectangle 232" width="184.463" height="13.718" rx="1.043" transform="translate(520.88 373.921)" fill="#86a2e2"/> <path id="Path_654" data-name="Path 654" d="M1556.714,3432.585V3570.2h21.362Z" transform="translate(-854.981 -3258.623)" fill="#aec3ff"/> </g> <g id="Group_232" data-name="Group 232" transform="translate(181.257 0)"> <g id="Group_230" data-name="Group 230" transform="translate(298.366)"> <g id="Group_225" data-name="Group 225" transform="translate(0 80.717)"> <path id="Path_655" data-name="Path 655" d="M1607.542,3337.639c-71.662,11.938-160.955-14.726-172.151-31.714-25.944,39.536-39.121,38.3-39.121,38.3v29.656l-5.864-5.862c-1.8-4.085-4.675-8.141-8.961-8.141-23.6,0-25.249,65.628,14.463,69.421.789,2.572,1.593,4.976,2.419,7.155v105.04H1487.9v-41.312a65.46,65.46,0,0,0,17.091,2.6c35.316,0,95.492-51.932,102.319-134.765C1607.723,3352.386,1607.542,3337.639,1607.542,3337.639Z" transform="translate(-1364.69 -3305.925)" fill="#fcbeb7"/> </g> <path id="Path_656" data-name="Path 656" d="M1490.566,3291.181c-61.773,0-74.125,32.946-74.125,32.946-26.36,0-66.717,48.182-42.422,101.722l.125.125,13.878,13.878V3410.2s13.177,1.237,39.121-38.3c11.2,16.987,100.49,43.652,172.151,31.713,0,0,.18,14.748-.23,30.378v.048C1625.835,3356.613,1572.114,3291.181,1490.566,3291.181Z" transform="translate(-1356.442 -3291.181)" fill="#311643"/> <g id="Group_226" data-name="Group 226" transform="translate(102.624 146.306)"> <path id="Path_657" data-name="Path 657" d="M1388.373,3337.022a4.94,4.94,0,0,1-4.938-4.943v-9.229a4.941,4.941,0,1,1,9.881,0v9.229A4.941,4.941,0,0,1,1388.373,3337.022Z" transform="translate(-1383.435 -3317.906)" fill="#311643"/> </g> <g id="Group_227" data-name="Group 227" transform="translate(194.255 146.306)"> <path id="Path_658" data-name="Path 658" d="M1405.111,3337.022a4.94,4.94,0,0,1-4.937-4.943v-9.229a4.941,4.941,0,1,1,9.881,0v9.229A4.941,4.941,0,0,1,1405.111,3337.022Z" transform="translate(-1400.173 -3317.906)" fill="#311643"/> </g> <g id="Group_228" data-name="Group 228" transform="translate(118.66 205.431)"> <path id="Path_659" data-name="Path 659" d="M1411.605,3346.383a28.238,28.238,0,0,1-18.465-6.341,25.11,25.11,0,0,1-6.575-8.14,2.266,2.266,0,0,1,4.128-1.867h0c.257.559,6.519,13.7,24.722,11.589a2.265,2.265,0,0,1,.52,4.5A37.777,37.777,0,0,1,1411.605,3346.383Z" transform="translate(-1386.365 -3328.706)" fill="#311643"/> </g> <circle id="Ellipse_78" data-name="Ellipse 78" cx="24.435" cy="24.435" r="24.435" transform="translate(50.318 157.524)" fill="#f49795"/> <path id="Path_660" data-name="Path 660" d="M1439.646,3324.1a173.892,173.892,0,0,1-14.852,44.688,24.434,24.434,0,1,1,14.852-44.688Z" transform="translate(-1199.564 -3162.431)" fill="#f49795"/> <g id="Group_229" data-name="Group 229" transform="translate(72.935 107.64)"> <circle id="Ellipse_79" data-name="Ellipse 79" cx="30.098" cy="30.098" r="30.098" transform="translate(4.53 4.531)" fill="none"/> <circle id="Ellipse_80" data-name="Ellipse 80" cx="30.098" cy="30.098" r="30.098" transform="translate(91.73 9.741) rotate(-9.217)" fill="none"/> <path id="Path_661" data-name="Path 661" d="M1504.27,3310.843a34.673,34.673,0,0,0-34.424,30.925,26.6,26.6,0,0,0-22.779-.017,34.673,34.673,0,1,0,.17,5,22.608,22.608,0,0,1,22.44.028,34.625,34.625,0,1,0,34.593-35.939Zm-91.632,64.729a30.1,30.1,0,1,1,30.1-30.1A30.137,30.137,0,0,1,1412.638,3375.572Zm91.632,0a30.1,30.1,0,1,1,30.1-30.1A30.131,30.131,0,0,1,1504.27,3375.572Z" transform="translate(-1378.012 -3310.843)" fill="#fff"/> </g> <path id="Path_662" data-name="Path 662" d="M1436.764,3409.044v-41.312c-20.256-5.567-43.314-19.205-60.646-32.207Z" transform="translate(-1313.552 -3092.76)" fill="#f9afab"/> </g> <path id="Path_663" data-name="Path 663" d="M1845.32,4235.872h-94.866l-159.515-701.457-163.412,701.457h-94.866l88.393-786.96H1771.53Z" transform="translate(-1209.63 -2585.414)" fill="#6277d7"/> <path id="Path_664" data-name="Path 664" d="M1410.354,3599.629v67.048a14.151,14.151,0,0,0,14.151,14.151h190.15a3.276,3.276,0,0,0,3.28-3.274v-12.915a14.7,14.7,0,0,0-8.316-13.242l-107.213-51.768Z" transform="translate(-861.997 -1911.031)" fill="#2f3d6c"/> <path id="Path_665" data-name="Path 665" d="M1517.77,3599.629v67.048a14.155,14.155,0,0,1-14.156,14.151H1313.462a3.275,3.275,0,0,1-3.274-3.274v-12.915a14.7,14.7,0,0,1,8.311-13.242l107.218-51.768Z" transform="translate(-1310.188 -1911.031)" fill="#2f3d6c"/> <path id="Path_666" data-name="Path 666" d="M1408.978,3592.662l7.143,38.142h92.442l-4.719-38.142Z" transform="translate(-868.154 -1942.204)" fill="#fcbeb7"/> <path id="Path_667" data-name="Path 667" d="M1338.794,3592.662l-7.5,38.142h92.051l10.316-38.142Z" transform="translate(-1215.762 -1942.204)" fill="#fcbeb7"/> <path id="Path_668" data-name="Path 668" d="M1348.462,3465.793l355.839,20.1-3.468-36.981H1350.358" transform="translate(-1138.933 -2585.414)" fill="#4a5ea3"/> <path id="Path_669" data-name="Path 669" d="M1351.861,3381.206" transform="translate(-1123.723 -2888.36)" fill="#fcbeb7"/> <line id="Line_4" data-name="Line 4" x2="80.874" y2="62.174" transform="translate(129.073 448.801)" fill="#fcbeb7"/> <path id="Path_670" data-name="Path 670" d="M1743.377,3585.235l23.217,339.161H1416.118l21.476-241.683-4.763-128.968-18.191,18.132-80.875-62.18,43.456-70.811a107.672,107.672,0,0,1,44.77-40.566l99.685-48.383,3.646-1.769,11.381-5.524s52.019,34.139,89.415,0l19.971,7.534,4.063,1.526,105.652,39.82a67.972,67.972,0,0,1,37.532,34.681l44.815,95.316Z" transform="translate(-1204.693 -3060.901)" fill="#89aeff"/> <g id="Group_231" data-name="Group 231" transform="translate(316.983 287.269)"> <path id="Path_671" data-name="Path 671" d="M1492.5,3345.664a102.336,102.336,0,0,1-120.768-2.01l-3.646,1.769a105.946,105.946,0,0,0,128.475,1.769Z" transform="translate(-1368.09 -3343.654)" fill="#fff"/> </g> <path id="Path_672" data-name="Path 672" d="M1381.84,3361.974a30.152,30.152,0,0,1-40.073,28.441,107.655,107.655,0,0,1,38.814-37.063A30.1,30.1,0,0,1,1381.84,3361.974Z" transform="translate(-1168.889 -3012.997)" fill="#4a62d3"/> <circle id="Ellipse_81" data-name="Ellipse 81" cx="45.409" cy="45.409" r="45.409" transform="translate(185.746 1131.097)" fill="#4a5ea3"/> <circle id="Ellipse_82" data-name="Ellipse 82" cx="45.409" cy="45.409" r="45.409" transform="translate(488.688 1131.097)" fill="#4a5ea3"/> <rect id="Rectangle_233" data-name="Rectangle 233" width="314.508" height="204.14" rx="1.615" transform="matrix(0.962, -0.274, 0.274, 0.962, 35.265, 706.167)" fill="#4a5ea3"/> <rect id="Rectangle_234" data-name="Rectangle 234" width="85.849" height="152.487" rx="0.843" transform="translate(406.918 363.695)" fill="#4a5ea3"/> <path id="Path_673" data-name="Path 673" d="M1693.473,3590.434l-63.882-151-48.745,32.594-68.486-60.011-14-47.994a3.4,3.4,0,0,0-2.929-2.935,10.4,10.4,0,0,0-11.7,11.491l2.4,21.017-25.412,3.372a47.319,47.319,0,0,1-20.425-1.769l-23.639-7.434a13.3,13.3,0,0,0-16.752,8.929h0l-9.126-2.108a8.434,8.434,0,0,0-10.072,6.1l-.06.24a8.432,8.432,0,0,0,4.259,9.6h0a13.759,13.759,0,0,0,9.711,16.681l.2.055h0a15.553,15.553,0,0,0,8.567,18.154l17.891,8.173a45.729,45.729,0,0,0,21.482,4.073l40.648-3.312,138.006,180.386.021.031.005-.006A42.753,42.753,0,0,0,1672.3,3646h0A42.745,42.745,0,0,0,1693.473,3590.434Z" transform="translate(-996.133 -2978.809)" fill="#fcbeb7"/> <path id="Path_674" data-name="Path 674" d="M1450.31,3388.317a29.152,29.152,0,0,1-38.053-36.705,67.983,67.983,0,0,1,37.007,34.477Z" transform="translate(-860.615 -3020.783)" fill="#4a62d3"/> <path id="Path_675" data-name="Path 675" d="M1418.586,3382.67l73.949,39.938,16.718,39.516Z" transform="translate(-825.163 -2881.816)" fill="#f9afab"/> <path id="Path_676" data-name="Path 676" d="M1434.339,3604.048l-104.687-182.426,22.149-6.319Z" transform="translate(-1223.097 -2735.8)" fill="#2f3d6c"/> <circle id="Ellipse_83" data-name="Ellipse 83" cx="28.728" cy="28.728" r="28.728" transform="translate(626.635 603.191)" fill="#f9afab"/> <path id="Path_677" data-name="Path 677" d="M1357.253,3415.545a30.474,30.474,0,0,1-24.63,29.914l-5.129-11.928a41.418,41.418,0,0,1,2.134-37.014l5.853-10.184A30.481,30.481,0,0,1,1357.253,3415.545Z" transform="translate(-1247.846 -2865.415)" fill="#f9afab"/> <path id="Path_678" data-name="Path 678" d="M1537.173,3759.578l-35.645-15.915a9.952,9.952,0,0,1-5.3-5.7l-5.168-14.229,18.011,4.418,5.743,12.34a8.475,8.475,0,0,0,11.026,4.2l-7.5-22.648a15.488,15.488,0,0,0-7.577-8.254l-37.642-18.509-64.927-210.6,49.6-49.353-80.874-62.175-47.289,82.3a41.453,41.453,0,0,0-2.141,37.019l131.252,300.131,26.041,1.206a8.531,8.531,0,0,0,7.7-4.127l2.835-4.737,13.708,1.122a8.514,8.514,0,0,0,7.539-3.415l3.224-4.353,1.921.51a11.741,11.741,0,0,0,13.336-5.8l9.514,3.176A13.589,13.589,0,0,0,1537.173,3759.578Z" transform="translate(-1247.848 -2924.364)" fill="#fcbeb7"/> <path id="Path_679" data-name="Path 679" d="M1461.184,3381.206" transform="translate(-634.559 -2888.36)" fill="#fcbeb7"/> </g> <g id="Group_233" data-name="Group 233" transform="translate(1855.273 1511.076)"> <rect id="Rectangle_235" data-name="Rectangle 235" width="258.721" height="258.721" transform="translate(142.515)" fill="#d2dcff"/> <rect id="Rectangle_236" data-name="Rectangle 236" width="142.515" height="258.721" fill="#aec3ff"/> <rect id="Rectangle_237" data-name="Rectangle 237" width="142.515" height="7.577" transform="translate(0 44.238)" fill="#86a2e2"/> <rect id="Rectangle_238" data-name="Rectangle 238" width="258.721" height="7.577" transform="translate(142.515 44.238)" fill="#aec3ff"/> <rect id="Rectangle_239" data-name="Rectangle 239" width="101.746" height="6.735" rx="0.598" transform="translate(221.003 82.121)" fill="#86a2e2"/> </g> </g> <g id="Group_92" data-name="Group 92" transform="translate(673.488 247.533)"> <rect id="Rectangle_58" data-name="Rectangle 58" width="299.99" height="254.394" rx="2.633" transform="translate(0.002 18.055)" fill="#d2dcff"/> <path id="Path_309" data-name="Path 309" d="M1339.572,1281.093v42.524H1039.58v-42.524A14.416,14.416,0,0,1,1054,1266.677h271.162A14.416,14.416,0,0,1,1339.572,1281.093Z" transform="translate(-1039.58 -1248.623)" fill="#6277d7"/> <g id="Group_90" data-name="Group 90" transform="translate(73.859)"> <rect id="Rectangle_59" data-name="Rectangle 59" width="14.882" height="36.107" rx="1.359" fill="#6277d7"/> <rect id="Rectangle_60" data-name="Rectangle 60" width="14.882" height="36.107" rx="1.359" transform="translate(137.391)" fill="#6277d7"/> </g> <g id="Group_91" data-name="Group 91" transform="translate(85.665 114.722)"> <path id="Path_310" data-name="Path 310" d="M1055.228,1349.656l32.021-28.756a61.272,61.272,0,0,0,4.894-5.01,9.6,9.6,0,0,0,2.442-6.521,7.919,7.919,0,0,0-3.027-6.58,11.161,11.161,0,0,0-7.1-2.386,9.759,9.759,0,0,0-7.626,3.027,12.207,12.207,0,0,0-3.087,7.45l-17.463-1.274a28.372,28.372,0,0,1,2.677-11.125,23.272,23.272,0,0,1,6.17-7.855,26,26,0,0,1,9.021-4.719,38.633,38.633,0,0,1,11.24-1.571,34.121,34.121,0,0,1,10.478,1.571,24.545,24.545,0,0,1,8.5,4.659,21.209,21.209,0,0,1,5.644,7.741,26.845,26.845,0,0,1,2.037,10.828,29.094,29.094,0,0,1-.81,7.161,24.4,24.4,0,0,1-2.273,5.825,26.943,26.943,0,0,1-3.437,4.834,56.929,56.929,0,0,1-4.309,4.308L1076.19,1352.8h36.558v15.374h-57.52Z" transform="translate(-1055.228 -1284.335)" fill="#6277d7"/> <path id="Path_311" data-name="Path 311" d="M1099.055,1338.712c-.931.231-1.861.428-2.792.582a17.436,17.436,0,0,1-2.912.235,26.1,26.1,0,0,1-10.593-2.1,24.463,24.463,0,0,1-8.151-5.705,25.4,25.4,0,0,1-5.24-8.562,29.629,29.629,0,0,1-1.867-10.533,26.879,26.879,0,0,1,8.907-20.5,29.609,29.609,0,0,1,9.723-5.765,36.857,36.857,0,0,1,24.165,0,29.41,29.41,0,0,1,9.777,5.765,26.87,26.87,0,0,1,8.907,20.5,37.1,37.1,0,0,1-.815,8.092,42.439,42.439,0,0,1-2.152,6.924,44.778,44.778,0,0,1-3.142,6.231q-1.806,2.971-3.783,6.114l-18.049,28.178H1079.73Zm-14.086-25.384a12.543,12.543,0,0,0,3.668,9.258,14.413,14.413,0,0,0,19.21,0,13.517,13.517,0,0,0,0-18.516,14.413,14.413,0,0,0-19.21,0A12.552,12.552,0,0,0,1084.969,1313.328Z" transform="translate(-1000.317 -1284.335)" fill="#6277d7"/> </g> <rect id="Rectangle_61" data-name="Rectangle 61" width="74.992" height="6.065" rx="0.554" transform="translate(112.502 235.817)" fill="#aec3ff"/> </g> </g> </g> </svg>