<?xml version="1.0" encoding="UTF-8"?>
<!DOCTYPE svg PUBLIC "-//W3C//DTD SVG 1.0//EN" "http://www.w3.org/TR/2001/REC-SVG-20010904/DTD/svg10.dtd">
<!-- Creator: CorelDRAW 2020 (64 Bit) -->
<svg xmlns="http://www.w3.org/2000/svg" xml:space="preserve" width="21cm" height="21.1667cm" version="1.0" style="shape-rendering:geometricPrecision; text-rendering:geometricPrecision; image-rendering:optimizeQuality; fill-rule:evenodd; clip-rule:evenodd"
viewBox="0 0 21000 21167"
 xmlns:xlink="http://www.w3.org/1999/xlink"
 xmlns:xodm="http://www.corel.com/coreldraw/odm/2003">
 <defs>
  <style type="text/css">
   <![CDATA[
    .fil3 {fill:#2A146C}
    .fil0 {fill:#373435}
    .fil6 {fill:#4B4B4D}
    .fil2 {fill:#5C22D0}
    .fil4 {fill:#8C9C7B}
    .fil5 {fill:#BDBFC1}
    .fil1 {fill:white}
   ]]>
  </style>
 </defs>
 <g id="Camada_x0020_1">
  <metadata id="CorelCorpID_0Corel-Layer"/>
  <path class="fil0" d="M2642 17440l-7 120 0 1876 -1115 6c-33,122 25,275 81,350 51,69 111,109 183,150 10,6 33,20 41,26 32,24 6,0 30,29 -209,5 -1337,18 -1465,-7 2,-231 -28,-1743 15,-1824l-35 -100c-138,-32 -97,164 -97,385 0,269 18,1449 -8,1548l13981 -4c76,-181 210,-372 281,-546 -443,-15 -915,-1 -1361,-1l-1032 0c-168,1 -165,17 -272,-57l-3503 24c-121,74 -608,37 -798,37 -270,0 -540,0 -810,0 -246,0 -1479,27 -1604,-19l-2394 -5 3 -1926 -8 -90 -76 -29 -32 55 2 2z"/>
  <path class="fil0" d="M13828 15071l64 400c536,11 1087,-22 1625,-20 110,0 299,-29 381,32 85,63 122,156 62,284 -243,517 -574,1095 -838,1640 -89,183 -191,365 -281,544 -87,173 -211,383 -279,552 75,57 120,68 168,148 47,78 50,196 84,250l1580 -2939c95,-162 170,-320 259,-488 57,-106 25,-200 -47,-256 -109,-85 -160,0 -199,-88l-11 -54c-1,-4 -2,-10 -3,-13 -1,-3 -1,-9 -3,-13l-2562 21z"/>
  <path class="fil1" d="M13412 18496c-53,-223 2,-329 -116,-577 -70,-148 -183,-272 -330,-342 -309,-147 -743,-129 -1010,137 -130,130 -173,232 -237,435 -96,305 -188,94 -237,37 -270,-319 -791,-161 -1039,123 -275,314 31,783 209,932 64,54 38,37 147,38 1251,1 2678,27 3868,-5 -65,-200 -133,-216 -145,-495 -9,-210 -46,-363 -169,-461 -280,-222 -756,209 -942,179l1 -1z"/>
  <path class="fil1" d="M8755 16253c-22,139 -292,602 -321,743l3315 -6c-34,-123 -322,-635 -326,-742 -351,-94 -949,-133 -1336,-132 -314,0 -1068,41 -1332,138l0 -1z"/>
  <path class="fil0" d="M14822 19122c47,77 52,120 122,173 70,52 192,14 148,129 -69,63 -310,20 -424,28l-283 544 488 3c43,-93 104,-199 150,-280l109 -187c13,-68 464,-905 532,-1027 140,-254 1546,-2948 1626,-3028 6,-42 -7,-7 14,-48 13,-25 10,-15 25,-30 -3,-100 23,-291 -213,-341 -114,-24 -428,-10 -560,-7 48,45 80,34 128,75 19,16 76,84 87,103 61,104 39,221 -13,322 -83,162 -189,353 -277,517 -90,169 -185,343 -272,506 -349,651 -771,1411 -1095,2049 -47,93 -225,463 -293,500l1 -1z"/>
  <path class="fil2" d="M15133 19532l-109 187c260,11 533,3 795,3 656,0 643,-154 927,-661 71,-127 206,-416 284,-508 242,-13 524,209 638,305 172,145 339,289 676,263 227,-17 508,-124 625,-314l300 -529c69,-180 -223,-10 -305,17 -377,122 -650,25 -913,-233 -222,-218 -714,-430 -860,-206 -121,186 -616,1120 -736,1344 -117,217 -180,329 -493,328 -254,-1 -584,-18 -829,4z"/>
  <path class="fil1" d="M9016 8620c-34,61 -83,109 -134,181 -138,195 -260,398 -376,608 28,4 251,-88 320,-108 743,-208 1352,-223 2121,-74 140,27 719,187 741,176 -26,-56 -67,-121 -101,-184 -91,-170 -274,-395 -358,-530 -303,-151 -1939,-234 -2214,-69l1 0z"/>
  <path class="fil3" d="M13412 18496c186,30 661,-401 942,-179 123,98 160,250 169,461 12,279 80,295 145,495 -1189,32 -2617,5 -3868,5 -109,0 -83,16 -147,-38 -178,-148 -483,-618 -209,-932 248,-284 769,-442 1039,-123 49,58 141,268 237,-37 64,-203 107,-305 237,-435 266,-266 700,-284 1010,-137 147,70 260,195 330,342 118,248 63,354 116,577l-1 1zm-2883 870c152,104 148,81 384,80l1457 0c630,0 1296,-21 1921,1l198 3c162,-11 502,49 599,-40 62,-162 -111,-108 -209,-182 -99,-75 -106,-136 -172,-244 -25,-118 -15,-195 -11,-311 -48,-77 -52,-243 -119,-353 -69,-113 -132,-128 -237,-209 -178,1 -197,-41 -403,13 -153,40 -225,93 -356,145l-33 -85c-116,-455 -242,-747 -851,-850 -274,-46 -552,28 -733,163 -334,249 -293,418 -400,527 -223,-127 -333,-222 -685,-154 -488,93 -982,585 -531,1250 65,96 133,157 181,247l0 -1z"/>
  <path class="fil2" d="M17291 15476c133,280 164,10 278,591 22,110 11,172 114,197 35,-53 72,-124 120,-179 44,23 240,195 267,243 22,39 42,149 56,197 76,253 101,240 228,25 107,28 248,124 282,228 33,104 84,301 151,355 104,-14 116,-169 185,-227 42,-10 112,19 165,38 70,25 81,44 117,105 47,79 114,240 184,275 101,-39 63,-100 114,-216 33,-76 82,-43 203,-40 94,2 124,-11 175,52 51,63 135,226 223,234 87,-85 65,-237 119,-306 19,-24 282,-98 329,-107l-2 -96c-111,17 -176,76 -504,122 -198,28 -392,10 -582,-17 -402,-55 -930,-349 -1254,-604 -246,-193 -416,-377 -639,-598l-290 -348c-15,15 -12,5 -25,30 -21,41 -9,6 -14,48l0 -2z"/>
  <path class="fil2" d="M2750 17414l8 90c370,45 310,2 373,157 24,59 30,85 82,109 150,-51 -8,-337 413,-319 16,88 17,150 79,190 94,-40 101,-165 162,-250 34,-49 249,-119 267,-115 57,67 20,123 76,175 173,-14 108,-359 464,-381 22,86 6,140 95,167 129,-81 64,-351 397,-392 40,56 16,78 58,132 136,-8 113,-173 195,-257 33,-34 241,-133 292,-160l10 -116 -661 329c-621,276 -1618,773 -2310,640l0 1z"/>
  <path class="fil2" d="M370 18067l35 100c124,-4 155,-32 170,82 11,81 0,149 58,194 94,2 150,-222 227,-281 0,0 262,-67 296,11 49,113 11,153 102,201 72,-38 98,-143 140,-226 39,-77 21,-57 112,-78 52,-12 103,-34 140,-10 49,62 10,123 81,185 75,25 109,-126 164,-234 36,-71 32,-55 115,-91 65,-28 86,-49 159,-55 16,78 2,102 73,150 91,-32 111,-174 161,-258 44,-73 130,-100 230,-196l7 -120c-676,531 -1389,645 -2272,627l2 -1z"/>
  <path class="fil0" d="M20600 16843l2 96c23,210 11,3004 -10,3061l141 0c-29,-91 -12,-2462 -11,-2945 0,-109 15,-352 -122,-212z"/>
  <path class="fil0" d="M5721 16444l-10 116c38,90 11,805 11,971 0,164 0,328 0,492 0,113 27,421 -16,488l136 -18 5 -1979 -30 -98c-62,-15 -64,2 -96,28z"/>
  <path class="fil4" d="M9113 3568c-299,339 -667,1037 -854,1554 -113,312 -190,590 -276,931 -64,254 -153,810 -136,1071 -128,1007 223,2282 599,3192 61,148 128,289 200,435 45,93 205,365 220,441 -9,77 -142,333 -182,422 -40,91 -185,328 -164,423 88,32 144,16 238,23l3133 -6c78,4 184,16 233,-18 34,-87 -114,-323 -155,-416 -62,-142 -133,-262 -187,-400 -24,-56 147,-329 186,-404 538,-1039 897,-2375 864,-3556 -22,-182 -17,-376 -40,-558 -114,-920 -436,-1938 -935,-2701 -41,-63 -69,-119 -118,-184 -30,-41 -103,-156 -131,-176l-143 -10c84,134 267,360 358,530 34,62 74,127 101,184 85,65 444,858 451,1015l178 661c298,1229 166,2464 -229,3644 -67,200 -396,1052 -502,1170 -14,94 -125,272 -164,355 4,107 292,619 326,742l-3315 6c29,-141 299,-604 321,-743 -48,-88 -152,-260 -173,-361 -717,-1404 -1116,-3156 -720,-4761l169 -654c22,-132 149,-443 209,-574 38,-84 77,-175 121,-261 41,-79 73,-199 146,-234 116,-210 238,-413 376,-608 51,-72 99,-120 134,-181l-138 7 -1 0z"/>
  <path class="fil1" d="M10914 7916c200,-103 306,264 128,357 -198,103 -350,-243 -128,-357zm-637 -1c208,-101 311,287 108,366 -198,78 -316,-265 -108,-366zm-685 -2c101,-49 192,43 210,125 25,109 -20,211 -91,239 -224,90 -324,-266 -120,-364l1 0zm636 -2510c605,-91 1049,503 1091,1056 49,641 -335,1226 -873,1293 -624,77 -1059,-493 -1101,-1063 -49,-652 332,-1204 884,-1287l-1 1zm-1963 17l-169 654c-396,1605 2,3357 720,4761 58,3 239,-68 317,-88 611,-153 1745,-167 2355,-11 110,28 237,82 333,99 106,-118 435,-971 502,-1170 395,-1179 527,-2415 229,-3644l-178 -661c-145,-57 -289,-121 -460,-178 -1043,-347 -2188,-343 -3219,46 -152,57 -298,141 -430,192z"/>
  <path class="fil4" d="M11782 11219c-2,-54 129,-27 255,-27 291,1 1979,15 2091,-9 34,-260 1,-514 -1,-771l-64 -400c-26,-54 -73,-303 -98,-389 -37,-129 -77,-252 -119,-374 -198,-578 -574,-1317 -910,-1836l-105 -155c33,1181 -326,2517 -864,3556 -39,75 -209,347 -186,404l1 1z"/>
  <path class="fil4" d="M8883 11194c2,-54 -129,-27 -255,-27 -291,1 -1979,15 -2091,-9 -34,-260 -1,-514 1,-771l64 -400c26,-54 73,-303 98,-389 37,-129 77,-252 119,-374 198,-578 574,-1317 910,-1836l105 -155c-33,1181 326,2517 864,3556 39,75 209,347 186,404l-1 1z"/>
  <path class="fil4" d="M8806 12502c55,176 149,963 197,1264 37,235 163,1093 180,1302 73,284 86,889 201,889 89,-474 -33,-1639 2,-2070 78,456 314,3697 728,4670 345,812 666,-857 809,-1819 36,-244 72,-407 106,-680 101,-807 192,-1329 262,-2249l9 224c-10,535 -157,1619 -66,1971 102,-6 135,-524 189,-855l469 -3096 -3133 24c30,230 33,156 48,425l-1 0z"/>
  <path class="fil4" d="M8742 4350c-73,36 -106,155 -146,234 -44,86 -82,176 -121,261 -59,130 -187,441 -209,574 132,-51 278,-135 430,-192 1031,-389 2176,-392 3219,-46 171,57 315,121 460,178 -7,-157 -366,-950 -451,-1015 -22,11 -601,-149 -741,-176 -769,-149 -1378,-134 -2121,74 -69,19 -293,112 -320,108z"/>
  <path class="fil4" d="M9113 3568l138 -7c276,-165 1911,-82 2214,69l143 10c-103,-165 -321,-401 -465,-514l-434 -281c-273,-121 -200,147 -200,-1041 0,-153 -23,-338 21,-475 56,-172 -81,-291 -193,-293 -132,-2 -247,129 -212,265 47,182 30,257 30,471 0,307 23,709 -1,1003 -334,135 -272,70 -594,314 -109,83 -406,365 -447,478l0 1z"/>
  <path class="fil4" d="M8817 10833c21,101 125,273 173,361 264,-97 1019,-137 1332,-138 387,-1 985,38 1336,132 39,-83 149,-262 164,-355 -95,-17 -222,-71 -333,-99 -609,-156 -1744,-142 -2355,11 -78,20 -259,91 -317,88z"/>
  <path class="fil1" d="M10241 5638c-387,57 -622,460 -591,921 34,509 512,952 1040,612 71,-46 137,-127 185,-196 106,-154 165,-378 142,-614 -39,-399 -339,-787 -775,-723l-1 0z"/>
  <path class="fil5" d="M10183 5531c516,-124 884,345 943,772 64,470 -171,978 -645,1090 -520,123 -877,-355 -942,-777 -84,-543 231,-986 644,-1086l0 1zm46 -129c-552,83 -932,634 -884,1287 42,570 477,1140 1101,1063 539,-67 922,-652 873,-1293 -42,-553 -486,-1147 -1091,-1056l1 -1z"/>
  <path class="fil3" d="M10241 5638c436,-64 737,324 775,723 23,236 -36,460 -142,614 -47,69 -113,150 -185,196 -528,339 -1006,-104 -1040,-612 -31,-461 204,-864 591,-921l1 0zm-58 -107c-413,100 -728,543 -644,1086 65,421 422,900 942,777 474,-112 709,-621 645,-1090 -58,-427 -427,-896 -943,-772l0 -1z"/>
  <path class="fil6" d="M9593 7912c-205,98 -105,454 120,364 71,-28 115,-130 91,-239 -18,-82 -109,-173 -210,-125l-1 0z"/>
  <path class="fil6" d="M10277 7914c-208,101 -90,444 108,366 203,-80 100,-467 -108,-366z"/>
  <path class="fil6" d="M10914 7916c-221,113 -70,460 128,357 178,-93 72,-459 -128,-357z"/>
  <g id="_2318175478896">
   <path class="fil1" d="M6630 17832c-389,39 -1765,-1280 -1862,498 -23,428 -218,627 -241,828 978,46 2063,4 3053,4 1019,0 2037,0 3056,0 619,0 645,159 1044,-477 191,-305 385,-765 100,-1119 -417,-519 -1159,-730 -1648,-427 -197,122 -232,302 -413,370 -261,-153 -91,-493 -555,-994 -247,-267 -660,-449 -1165,-405 -1415,122 -1207,1335 -1369,1722z"/>
   <path class="fil3" d="M6630 17832c163,-387 -45,-1600 1369,-1722 505,-43 917,138 1165,405 464,501 294,841 555,994 181,-68 216,-248 413,-370 488,-303 1231,-92 1648,427 284,354 91,814 -100,1119 -399,636 -424,477 -1044,477 -1019,0 -2037,0 -3056,0 -990,0 -2075,42 -3053,-4 23,-201 218,-400 241,-828 97,-1777 1473,-458 1862,-498zm-1167 -702l-328 44c-446,160 -612,498 -645,1043 -58,953 -388,847 -700,996l6 182c301,110 3268,46 3860,46 649,0 1299,0 1948,0 455,0 1628,90 1919,-89 418,-540 938,-1034 491,-1950 -119,-97 -153,-179 -259,-269 -78,-66 -233,-166 -322,-214 -299,-161 -495,-168 -874,-196 -484,56 -547,237 -764,279 -140,-169 -512,-1377 -1880,-1164 -729,114 -1093,378 -1351,977 -292,678 130,717 -584,439 -171,-66 -325,-85 -516,-126l-1 2z"/>
  </g>
 </g>
</svg>
