<?xml version="1.0" encoding="UTF-8"?>
<!DOCTYPE svg PUBLIC "-//W3C//DTD SVG 1.0//EN" "http://www.w3.org/TR/2001/REC-SVG-20010904/DTD/svg10.dtd">
<!-- Creator: CorelDRAW 2020 (64 Bit) -->
<svg xmlns="http://www.w3.org/2000/svg" xml:space="preserve" width="21cm" height="16.9333cm" version="1.0" style="shape-rendering:geometricPrecision; text-rendering:geometricPrecision; image-rendering:optimizeQuality; fill-rule:evenodd; clip-rule:evenodd"
viewBox="0 0 21000 16933"
 xmlns:xlink="http://www.w3.org/1999/xlink"
 xmlns:xodm="http://www.corel.com/coreldraw/odm/2003">
 <defs>
  <style type="text/css">
   <![CDATA[
    .fil8 {fill:#8C9C7B}
    .fil7 {fill:#606062;fill-rule:nonzero}
    .fil6 {fill:#4B4B4D;fill-rule:nonzero}
    .fil5 {fill:#373435;fill-rule:nonzero}
    .fil1 {fill:#4E5A62;fill-rule:nonzero}
    .fil2 {fill:#ABC2B3;fill-rule:nonzero}
    .fil3 {fill:#8C9C7B;fill-rule:nonzero}
    .fil4 {fill:#2E186A;fill-rule:nonzero}
    .fil0 {fill:white;fill-rule:nonzero}
   ]]>
  </style>
 </defs>
 <g id="Camada_x0020_1">
  <metadata id="CorelCorpID_0Corel-Layer"/>
  <path id="succulent" class="fil0" d="M7870 10419c-165,-87 -305,-46 -459,118 70,-398 69,-879 -247,-960 -324,-84 -507,118 -698,607 7,-418 -75,-958 -422,-980 -389,-24 -519,297 -615,1008 -122,-398 -456,-1095 -850,-956 -386,135 -360,507 -146,1265 -211,-327 -634,-814 -917,-629 -269,175 -195,461 103,992 -197,-86 -401,-94 -566,67 -369,363 -190,708 319,1347 511,639 4177,-492 4351,-780 175,-290 447,-938 147,-1099z"/>
  <path id="succulent_2_" class="fil1" d="M4078 12543l0 0c-382,0 -633,-72 -746,-213 -118,-144 -229,-296 -331,-452 -80,-126 -131,-231 -162,-330l-4 -12c-35,-118 -37,-225 -8,-326 30,-102 92,-198 190,-295 89,-91 211,-142 338,-142 1,0 2,0 3,0 50,0 99,7 147,19l4 1 -7 -14c-117,-222 -178,-379 -198,-510l-1 -7c-13,-91 -4,-169 26,-238 34,-73 89,-134 158,-175 49,-33 106,-50 165,-50 0,0 1,0 1,0 112,0 240,59 380,176 99,85 191,181 272,284l4 6 -3 -14c-64,-263 -88,-445 -79,-592l1 -15c9,-113 40,-202 95,-274 55,-72 132,-125 237,-162 39,-14 80,-21 122,-21 86,2 170,31 239,83 88,65 164,144 225,234 106,154 194,321 261,495l0 1 3 -18c45,-265 96,-440 167,-567l3 -6c41,-79 102,-145 177,-192 71,-42 152,-64 234,-64 4,0 8,0 13,0 14,0 28,0 43,1 89,5 173,44 236,107 63,63 115,154 153,269 42,135 67,276 75,417l0 3 6 -13c74,-149 149,-256 230,-325 75,-67 173,-105 275,-105 1,0 2,0 3,0 47,0 95,7 140,18l10 3c81,20 153,69 203,137 50,67 84,156 103,266 22,130 23,286 1,466l-1 9 7 -5c63,-48 139,-74 218,-76 63,1 125,17 180,48l6 3c39,21 73,50 98,86 26,38 43,80 52,125 20,92 13,209 -21,348 -46,190 -144,424 -258,612 -24,40 -101,93 -227,156 -155,74 -315,141 -477,198 -449,159 -914,297 -1378,407 -324,77 -623,136 -889,176 -237,38 -478,59 -718,62l0 0zm-719 -1669c-1,0 -1,0 -2,0 -101,0 -198,41 -268,113 -168,166 -215,321 -156,519 51,174 176,375 445,716l35 44c46,58 127,102 239,131 109,28 250,43 418,43 399,0 950,-81 1592,-234 458,-109 918,-245 1361,-403 179,-65 336,-129 454,-186 115,-55 184,-99 201,-126 108,-179 202,-403 246,-583 28,-115 35,-211 22,-286 -13,-76 -47,-129 -101,-158 -41,-24 -89,-38 -137,-39 -80,0 -159,43 -249,135l-11 12c-9,10 -23,16 -37,16 0,0 0,0 0,0 -16,0 -30,-7 -40,-19 -8,-9 -12,-20 -12,-32 0,-3 0,-6 1,-10 44,-246 49,-458 16,-612 -35,-163 -111,-261 -225,-290 -39,-11 -79,-16 -120,-17 -106,0 -194,44 -276,139 -80,93 -157,237 -241,453 -7,20 -26,33 -47,33 0,0 0,0 -1,0 0,0 0,0 0,0 -14,0 -28,-6 -38,-16 -9,-9 -14,-22 -14,-35 0,-1 0,-1 0,-2 4,-268 -26,-496 -88,-657 -65,-170 -164,-263 -286,-271 -13,-1 -25,-1 -37,-1 -155,0 -259,66 -339,214 -78,145 -135,377 -186,751 -3,25 -25,45 -50,45 0,0 -1,0 -1,0 0,0 -1,0 -1,0 -22,0 -42,-15 -48,-36 -75,-245 -193,-493 -316,-665 -130,-181 -259,-273 -383,-273 -29,0 -58,5 -85,15 -168,59 -246,161 -263,341 -16,177 29,435 149,862 1,5 2,10 2,15 0,11 -3,21 -10,30 -10,13 -26,21 -43,21 0,0 0,0 0,0 -17,0 -33,-9 -42,-24 -121,-189 -254,-349 -382,-463 -134,-119 -256,-182 -355,-182 -1,0 -2,0 -3,0 -37,0 -74,11 -106,31 -114,74 -157,170 -139,310 18,139 98,329 258,615 4,8 7,16 7,25 0,9 -2,18 -7,26 -9,16 -26,26 -44,26 -7,0 -14,-2 -21,-4 -75,-35 -156,-54 -239,-57l0 0z"/>
  <path id="pot" class="fil2" d="M7899 11504l3 -10 -4932 15 3 10c-239,47 -412,257 -412,500 0,26 2,52 6,77l369 2379 4998 -15 369 -2379c4,-26 6,-52 6,-79 0,-243 -172,-452 -411,-499l0 0z"/>
  <path id="clothing" class="fil3" d="M15976 10647c-77,0 -154,5 -230,14 -410,-566 -879,-1046 -1373,-1351 -1286,-792 -3051,-566 -4698,45 -1133,418 -2568,1769 -3488,2725 -1200,91 -2122,907 -2067,1841 12,200 69,396 164,573l4027 27c7,-10 14,-22 21,-33l5972 -21c7,9 14,17 21,27l3307 -5c307,-406 490,-926 490,-1493 0,-1299 -960,-2350 -2144,-2350z"/>
  <path id="Path" class="fil0" d="M14491 9387c-1520,943 -2885,963 -3769,811 -819,-141 -1411,-456 -1603,-579 -33,19 -65,38 -99,57 158,108 775,465 1666,621 290,51 585,77 879,77 0,0 0,0 0,0 0,0 3,0 4,0 300,0 600,-27 895,-79 722,-129 1433,-411 2119,-842 -31,-24 -60,-45 -91,-65z"/>
  <path id="Path-2" class="fil0" d="M14334 11007c242,-339 540,-530 888,-567 39,-4 78,-6 117,-6 87,0 175,10 260,30 -33,-41 -65,-82 -98,-122 -52,-7 -104,-10 -157,-10 -43,0 -86,2 -128,7 -262,27 -643,154 -967,610 -6,9 -9,19 -9,30 0,17 8,32 21,42 8,7 19,10 29,10 17,-1 33,-10 43,-24l0 0z" data-name="Path"/>
  <path id="Path-3" class="fil0" d="M14353 12212l0 0c0,0 0,0 0,0 28,0 51,-22 53,-50 3,-151 63,-494 274,-816 243,-375 603,-605 1066,-687 -22,-31 -45,-62 -69,-93 -463,94 -837,343 -1085,723 -207,319 -286,669 -291,869 0,0 0,1 0,1 0,28 23,52 51,52z" data-name="Path"/>
  <path id="Path-4" class="fil0" d="M7090 11706c-34,-1 -69,-2 -104,-2 -160,0 -321,16 -478,47 -51,51 -103,103 -153,154 190,-105 1274,-235 1721,274 10,11 23,17 38,17 1,0 1,0 2,0 0,0 1,0 1,0 12,0 24,-4 33,-12 11,-10 17,-24 17,-39 0,-12 -4,-24 -12,-33 -290,-331 -792,-396 -1066,-406z" data-name="Path"/>
  <path id="Path-5" class="fil0" d="M6152 12084l3 0c0,0 -1,-1 -2,-1 -1,0 -1,0 -2,1l0 0z" data-name="Path"/>
  <path id="Path-6" class="fil0" d="M7971 12442c-605,-458 -1359,-485 -1678,-471 -36,38 -72,74 -106,110 183,-15 1059,-57 1723,444 9,7 20,10 31,10 28,0 51,-23 51,-51 0,-16 -8,-31 -21,-41l0 0z" data-name="Path"/>
  <path id="hand" class="fil0" d="M5357 14478c0,0 562,-1663 2144,-1361 1582,302 3747,950 3747,950l0 417 -5892 -5z"/>
  <path id="hand_2_" class="fil4" d="M11248 14535l-5892 -5c-28,0 -51,-23 -51,-51 0,-6 1,-11 3,-16 0,-1 1,-3 2,-5l7 -18c2,-7 5,-13 7,-19l8 -21c21,-52 46,-107 73,-162 85,-174 189,-338 310,-490 95,-119 202,-228 319,-325 115,-94 241,-174 375,-237 110,-51 226,-91 344,-117 122,-26 246,-40 370,-40 1,0 2,0 3,0 129,0 258,13 384,38 295,56 631,129 999,215l62 15c219,52 451,109 691,170 447,114 920,242 1405,379 150,42 296,84 434,125l92 27 68 20c22,6 37,26 37,49 0,0 0,0 0,0l0 417c0,28 -23,51 -51,51l0 0zm-4122 -1403c-3,0 -5,0 -8,0 -230,0 -457,50 -666,147 -244,114 -465,293 -657,533 -116,145 -217,304 -299,471 -22,45 -43,90 -61,133l-5 11 5765 5 0 -327 -159 -47c-128,-37 -262,-76 -398,-114l-72 -20c-458,-129 -906,-249 -1330,-358 -240,-61 -471,-118 -689,-170 -391,-93 -747,-170 -1057,-229 -120,-23 -242,-35 -365,-36l0 0z"/>
  <path id="Path-7" class="fil0" d="M17849 8336c0,0 -127,-63 -142,-209 -15,-146 82,-780 240,-869 159,-89 885,-482 1018,-473 134,9 189,1172 -1116,1551z" data-name="Path"/>
  <g>
   <path id="Path-8" class="fil0" d="M17927 7328c271,-948 492,-1160 621,-1068 117,84 -120,687 -189,1001l-432 67zm0 0l0 0 0 0z" data-name="Path"/>
  </g>
  <path id="Path_2_" class="fil4" d="M18247 6376l8 -12c110,-161 223,-216 322,-145 58,42 64,128 41,265l-3 19c-15,85 -41,184 -83,328l-68 232c-32,110 -42,151 -55,210 -5,24 -26,40 -50,40 -28,0 -51,-23 -51,-51 0,-4 0,-7 1,-11l5 -22c11,-49 22,-91 48,-181l69 -234c35,-114 64,-230 87,-347l2 -13c14,-89 10,-143 -2,-151 -39,-28 -100,2 -184,130l-8 12c-108,170 -227,468 -350,898 -6,22 -26,38 -49,38 -28,0 -51,-23 -51,-51 0,-5 1,-10 2,-14l9 -31c125,-433 247,-733 361,-907z"/>
  <g>
   <path id="hand_II_3_" class="fil0" d="M19121 7123c135,-221 360,-209 243,166 -115,367 -199,843 -413,1059 -214,216 -291,312 -291,312 0,0 -429,1599 -672,2929 -351,1923 -1016,2294 -1637,2072 -621,-219 -735,-1090 111,-2779 847,-1690 1294,-2674 1294,-2674l1364 -1087zm0 0l0 0 0 0z"/>
  </g>
  <path id="hand_II_4_" class="fil4" d="M19077 7096c77,-126 189,-196 278,-162 99,38 118,172 60,363l-12 40c-15,49 -30,102 -50,176l-37 135c-109,393 -190,594 -324,732l-34 34c-70,71 -128,133 -176,185l-19 21c-20,22 -36,40 -49,56l-8 9 -27 103 -24 93c-24,91 -49,191 -76,298 -98,388 -196,793 -287,1197l-20 88c-42,189 -82,373 -119,552l-15 72c-32,155 -61,304 -88,447l-12 66c-168,918 -415,1531 -731,1866 -283,300 -617,373 -974,245 -343,-121 -528,-424 -529,-887 0,-481 197,-1132 599,-1939l79 -158c320,-641 603,-1220 847,-1732l95 -200c59,-124 112,-237 160,-339l75 -161 49 -107c8,-18 27,-30 47,-30 28,0 51,23 51,51 0,6 -1,13 -3,18l-6 14 -53 116 -73 158c-56,119 -119,252 -189,400l-72 151c-259,541 -560,1157 -902,1840 -778,1551 -777,2482 -140,2707 320,114 611,51 865,-219 297,-315 535,-903 699,-1787l5 -27c34,-185 72,-381 115,-587 43,-206 89,-420 139,-641 86,-382 179,-766 271,-1134l38 -149c18,-69 34,-134 50,-196l32 -123 27 -103c2,-7 5,-13 10,-19l7 -9 9 -11c14,-16 30,-35 51,-58l26 -29c54,-59 121,-129 202,-210l8 -8c110,-115 184,-295 280,-635l62 -223c17,-61 31,-108 45,-153l6 -20c46,-149 35,-231 4,-244 -32,-12 -100,31 -154,119 -9,15 -26,25 -44,25 -28,0 -51,-23 -51,-51 0,-9 3,-19 8,-27l0 0z"/>
  <g>
   <path id="Path-9" class="fil0" d="M17772 8239c-123,-84 -108,-567 -247,-778 -171,-262 -339,-535 -22,-494 273,34 358,274 422,360l-153 912zm0 0l0 0 0 0z" data-name="Path"/>
  </g>
  <path id="Path_2_2" class="fil4" d="M17281 7112c-36,-144 48,-220 228,-196 151,19 261,94 350,214l4 6c32,45 94,149 102,161l0 1c7,9 11,20 11,32 0,28 -23,51 -51,51 -17,0 -33,-8 -42,-22l-2 -2c-15,-22 -79,-129 -105,-164 -73,-99 -159,-158 -280,-173 -63,-8 -100,-2 -113,10 -8,7 -11,24 -3,55l1 4c18,72 69,164 182,336l6 9c53,80 85,185 118,354l7 35 20 109c31,166 56,242 87,265l2 1c14,10 22,25 22,42 0,28 -23,51 -51,51 -10,0 -20,-3 -29,-9 -64,-44 -92,-125 -130,-322l-23 -125 -3 -17c-31,-159 -60,-257 -102,-324l-32 -49c-104,-161 -152,-250 -172,-332z" data-name="Path_2_"/>
  <g>
   <path id="Path-10" class="fil0" d="M18964 7524c0,0 242,-586 322,-859 89,-297 -223,-339 -374,87l51 771zm0 0l0 0 0 0z" data-name="Path"/>
  </g>
  <path id="Path_2_3" class="fil4" d="M19186 6386c134,-9 199,122 151,288l-2 6c-25,83 -65,199 -118,340l-9 25c-7,19 -15,39 -22,59 -33,87 -69,178 -105,267l-29 73 -30 75 -10 25c-8,19 -27,32 -48,32 -28,0 -51,-23 -51,-51 0,-6 1,-11 3,-17l41 -102c5,-11 9,-23 14,-34 36,-89 71,-179 105,-267l22 -57 15 -39c55,-146 97,-266 123,-351l2 -7c33,-109 6,-165 -44,-161 -74,5 -169,105 -232,281 -7,21 -27,34 -49,34 -28,0 -51,-23 -51,-51 0,-6 1,-12 3,-17 75,-211 199,-341 322,-349z" data-name="Path_2_"/>
  <g>
   <path id="Path-11" class="fil0" d="M18679 7370c0,0 475,-1075 262,-1171 -194,-87 -341,305 -585,1063l322 108zm0 0l0 0 0 0z" data-name="Path"/>
  </g>
  <path id="Path_2_4" class="fil4" d="M18629 6376c103,-199 208,-281 333,-224 129,58 105,281 -11,644 -20,62 -42,126 -66,193 -31,86 -64,171 -97,253l-12 30c-12,28 -23,54 -33,78l-18 41c-8,18 -27,30 -47,30 -28,0 -51,-23 -51,-51 0,-7 1,-14 4,-21l13 -31 11 -26c8,-18 16,-38 24,-59 37,-90 74,-184 108,-279 24,-65 45,-128 64,-189l8 -27c87,-280 106,-471 58,-493 -60,-27 -123,25 -207,191l-10 19c-77,158 -159,389 -298,822 -7,21 -27,36 -49,36 -28,0 -51,-23 -51,-51 0,-5 1,-11 2,-16l30 -93c127,-392 205,-605 282,-758l10 -19z" data-name="Path_2_"/>
  <path id="neck" class="fil0" d="M10919 8151l67 1212c0,0 -113,655 795,533 905,-120 794,-657 794,-657l-279 -1505 -1376 417z"/>
  <path id="neck_2_" class="fil4" d="M11570 9963l0 0c-154,0 -282,-27 -382,-80 -94,-49 -168,-128 -211,-224 -31,-71 -47,-148 -47,-225 0,-19 1,-38 3,-57 0,-4 1,-7 1,-10l1 -5 -67 -1207c0,-1 0,-2 0,-3 0,-23 15,-43 37,-49l1376 -417c5,-1 10,-2 15,-2 25,0 46,18 51,42l280 1506c1,3 1,6 2,11l1 7c2,17 3,35 3,52 0,42 -6,84 -17,124 -19,68 -51,131 -94,186 -136,177 -382,290 -732,336 -72,10 -146,16 -219,16l0 0zm686 -2162l-1283 388 65 1172c0,1 0,2 0,3 0,2 0,3 0,5l-1 4c0,2 -1,4 -1,7l-1 7c-2,16 -2,31 -2,47 0,63 13,125 38,183 72,162 239,244 495,244 70,0 140,-6 209,-15 322,-43 546,-143 664,-297 57,-71 89,-160 89,-252 0,-12 -1,-25 -2,-37 0,-3 -1,-6 -1,-9l-269 -1451z"/>
  <g>
   <path id="ear" class="fil0" d="M12644 6206c0,0 703,-264 730,468 27,732 -730,542 -730,542l0 -1010zm0 0l0 0 0 0z"/>
  </g>
  <path id="ear_2_" class="fil4" d="M12712 6132c63,-16 129,-24 194,-24 37,0 75,3 111,8 242,40 395,217 408,556 13,350 -143,542 -405,600 -59,12 -119,18 -179,18 -49,0 -98,-4 -147,-12l-17 -3c-21,-4 -37,-7 -47,-9 -23,-6 -39,-26 -39,-50 0,-28 23,-51 51,-51 3,0 6,0 10,1l11 3 5 1c12,2 25,5 40,7 43,7 87,11 131,11 53,0 105,-5 157,-15 215,-47 336,-196 324,-495l-1 -17c-15,-279 -131,-410 -321,-441 -31,-4 -63,-7 -95,-7 -58,0 -115,7 -171,21 -17,4 -33,8 -48,13l-7 2c-5,2 -10,3 -13,4l-6 2c-6,2 -12,3 -18,3 -28,0 -51,-23 -51,-51 0,-21 13,-41 33,-48l7 -2c26,-9 53,-17 79,-23l0 0z"/>
  <path id="face" class="fil0" d="M11325 8520l0 0c-761,0 -1378,-617 -1378,-1378l0 -1203c0,-487 396,-882 883,-883l1207 0c369,0 668,300 669,669l0 1416c0,762 -618,1380 -1380,1380l0 0z"/>
  <path id="face_2_" class="fil4" d="M11325 8571c-1,0 -2,0 -2,0 -284,0 -562,-85 -797,-244 -230,-155 -410,-374 -518,-629 -74,-175 -112,-364 -112,-554 0,-1 0,-2 0,-3l0 -1203c0,-516 419,-934 934,-934l1207 0c397,0 720,323 720,720l0 1416c0,0 0,2 0,2 0,281 -83,557 -240,791 -152,229 -368,409 -619,519 -173,76 -360,116 -549,119l-23 0zm-495 -3464c-459,0 -831,373 -831,831l0 1203c1,732 594,1326 1326,1327l22 0c720,-12 1306,-608 1306,-1328l0 -1416c0,-341 -277,-617 -617,-617l-1207 0z"/>
  <path id="Path-12" class="fil5" d="M13026 7793c0,-1 0,-4 0,-5 0,-298 -28,-597 -84,-890 0,-5 2,-12 2,-17 0,-108 -87,-195 -195,-195l0 195 5 195c39,-1 78,-15 110,-38 63,394 189,1570 -339,2570 -96,183 -187,353 -276,516 -497,927 -826,1541 -818,2088 1,28 23,51 51,51l0 0c28,0 51,-23 51,-51 -7,-521 317,-1124 806,-2038 87,-165 178,-333 276,-518 345,-653 415,-1373 411,-1863z" data-name="Path"/>
  <path id="Path-13" class="fil5" d="M9813 7099c24,14 51,22 79,24l0 -389c-90,8 -163,77 -175,166 -5,9 -8,19 -9,29 0,79 0,1925 549,2758 561,854 734,1340 773,2167 1,28 24,49 51,50l2 0c28,-2 50,-25 50,-53 0,0 0,0 0,-1 -39,-850 -216,-1347 -790,-2220 -439,-665 -516,-2050 -530,-2532z" data-name="Path"/>
  <path id="nose" class="fil4" d="M10903 6262c0,0 1,0 1,0 27,0 49,21 51,48l0 3 18 1088 1 0c2,0 3,1 5,1 3,0 6,-1 8,-2l3 -1c26,-11 61,-50 101,-123 9,-17 26,-27 45,-27 28,0 51,23 51,51 0,9 -2,17 -6,25 -94,172 -195,215 -276,154 -10,-7 -19,-16 -26,-26 -5,-7 -8,-16 -9,-25l0 -4 -19 -1111c0,0 0,-1 0,-1 0,-28 23,-51 51,-51l0 0z"/>
  <path id="mouth" class="fil4" d="M11445 7563c8,-5 18,-8 28,-8 23,0 43,15 49,36l1 4c1,5 3,11 4,19 3,18 5,35 5,53 0,48 -12,95 -35,137 -57,106 -182,176 -381,195 -2,0 -3,0 -5,0 -28,0 -51,-23 -51,-51 0,-26 20,-48 46,-51 168,-17 261,-69 301,-142 9,-17 16,-36 19,-56l1 -7 -2 1c-224,120 -447,128 -557,5l-4 -4c-8,-9 -12,-21 -12,-33 0,-28 23,-51 51,-51 15,0 29,6 39,18 80,93 290,74 502,-65z"/>
  <path id="brow" class="fil4" d="M11371 5861c112,-85 245,-94 389,20 12,10 19,25 19,40 0,28 -23,51 -51,51 -12,0 -23,-4 -32,-11 -104,-83 -186,-77 -263,-19 -10,8 -20,17 -30,26l-19 19c-3,3 -5,5 -7,7 -6,6 -14,10 -22,11 -4,1 -8,2 -12,2 -28,0 -51,-23 -51,-51 0,-16 8,-31 21,-41l2 -2 11 -11c14,-14 30,-28 46,-40z"/>
  <ellipse id="eye_II" class="fil4" cx="11728" cy="6641" rx="86" ry="132"/>
  <ellipse id="eye" class="fil4" cx="10482" cy="6674" rx="86" ry="132"/>
  <path id="brow_II" class="fil4" d="M10243 5845c128,-102 269,-107 393,52 7,9 11,20 11,32 0,28 -23,51 -51,51 -16,0 -31,-7 -41,-20 -83,-107 -159,-105 -247,-34 -12,10 -24,20 -35,31l-20 20c-3,3 -5,5 -7,7 -7,6 -14,10 -23,12 -4,1 -8,1 -12,1 -28,0 -51,-23 -51,-51 0,-16 8,-31 20,-41l2 -1 13 -13c15,-16 32,-31 49,-45l0 0z"/>
  <path id="Path-14" class="fil5" d="M11670 4756c-334,5 -588,21 -739,50l0 0c-1227,279 -1028,1188 -1028,1188 0,0 600,115 1088,-609 0,0 670,547 1663,768 15,-3 34,-9 51,-14l0 50c67,-18 136,-27 206,-27 15,0 30,0 44,1 -10,-358 -75,-811 -370,-1102 -209,-207 -518,-310 -915,-305z" data-name="Path"/>
  <path id="Path-15" class="fil0" d="M10958 4694c239,-29 482,-44 723,-44 15,0 32,0 46,0 530,6 884,201 1093,545 85,143 145,300 179,463 29,135 48,272 58,410 0,1 0,3 0,4 0,28 -23,51 -51,51 -26,0 -49,-20 -51,-46l-3 -31c-32,-345 -87,-579 -220,-798 -191,-313 -512,-490 -1007,-496l-30 0c-6,0 -12,0 -18,0 -235,0 -472,14 -705,42 -3,0 -5,1 -7,1 -28,0 -51,-23 -51,-51 0,-26 19,-47 44,-51l0 0z" data-name="Path"/>
  <path id="Path-16" class="fil6" d="M14891 4010c-423,-1210 -1623,-1891 -2681,-1520 -869,303 -1371,1224 -1289,2213 159,-27 410,-45 749,-50 427,-5 759,106 989,334 326,322 393,811 401,1191 158,43 303,171 315,495 2,33 -27,285 -21,283 0,1 0,2 0,3 0,98 27,194 77,279 118,190 358,309 715,350l7 0c0,0 1,0 1,0 28,0 51,-23 51,-51 0,-26 -19,-47 -45,-50 -322,-38 -538,-139 -639,-302 -36,-58 -57,-123 -62,-190 87,103 240,214 482,214 64,-1 128,-8 190,-21 24,-5 40,-26 40,-50 0,-28 -23,-51 -51,-51 -3,0 -7,0 -10,1 -312,65 -485,-53 -576,-159 70,-15 140,-35 207,-58 1056,-372 1570,-1653 1148,-2861z" data-name="Path"/>
  <path id="Oval" class="fil4" d="M11802 7352c-375,0 -679,-304 -679,-679 0,-273 163,-519 414,-625 83,-35 174,-54 264,-54 375,0 679,304 679,679 0,273 -163,519 -415,625 -83,35 -173,53 -263,53 0,0 -1,0 -1,0l0 0zm0 -1255c-318,0 -576,258 -576,576 0,318 258,576 576,576 318,0 576,-258 576,-576 0,-318 -258,-576 -576,-576l0 0z"/>
  <path id="Path-17" class="fil4" d="M11161 6607c0,0 0,0 0,0 28,0 51,23 51,51 0,27 -21,50 -48,51l-3 0 -408 0c0,0 0,0 0,0 -28,0 -51,-23 -51,-51 0,-27 21,-50 48,-51l3 0 408 0z" data-name="Path"/>
  <path id="Path-18" class="fil4" d="M12680 6125c8,-4 17,-7 25,-7 28,0 51,23 51,51 0,17 -9,34 -24,43l-3 2 -355 201c-8,4 -17,7 -25,7 -28,0 -51,-23 -51,-51 0,-17 9,-34 24,-43l3 -2 355 -201z" data-name="Path"/>
  <path id="Oval-2" class="fil4" d="M10105 7352c-375,0 -679,-304 -679,-679 0,-273 163,-519 414,-625 83,-35 174,-54 264,-54 375,0 679,304 679,679 0,273 -163,519 -415,625 -83,35 -173,53 -263,53 0,0 -1,0 -1,0l0 0zm0 -1255c-318,0 -576,258 -576,576 0,318 258,576 576,576 318,0 576,-258 576,-576 0,-318 -258,-576 -576,-576l0 0z" data-name="Oval"/>
  <path id="shape" class="fil7" d="M14419 13835l-357 0 -175 -2594c-15,-184 -167,-327 -351,-329l-4969 0c-2,0 -3,0 -5,0 -167,0 -303,136 -303,303 0,9 0,17 1,26l194 2871c15,184 167,327 351,329l5612 -7c102,0 185,-83 185,-185l0 -228c0,-1 0,-2 0,-4 0,-101 -82,-183 -183,-183 0,0 0,0 0,0z"/>
  <path id="line" class="fil4" d="M20949 14442c0,0 0,0 0,0 28,0 51,23 51,51 0,27 -21,50 -48,51l-3 0 -20897 0c0,0 0,0 0,0 -28,0 -51,-23 -51,-51 0,-27 21,-50 48,-51l3 0 20897 0z"/>
  <path class="fil8" d="M11037 12055l19 0c117,0 226,33 320,89l-83 0 0 200 212 0 0 -96c107,112 173,263 173,429l0 0c0,166 -66,318 -173,429l0 -658 -212 0 0 784 44 0c-84,43 -180,67 -281,67l-19 0c-342,0 -622,-280 -622,-622l0 0c0,-342 280,-622 622,-622z"/>
 </g>
</svg>
